Radio-Canada-CondensedBold.ufo
<glyph name="dollar" format="1">
  <advance width="504"/>
  <unicode hex="0024"/>
  <outline>
    <contour>
      <point x="11" y="72" type="line"/>
      <point x="81" y="20"/>
      <point x="158" y="-12"/>
      <point x="243" y="-12" type="curve"/>
      <point x="396" y="-12"/>
      <point x="485" y="84"/>
      <point x="485" y="203" type="curve" smooth="yes"/>
      <point x="485" y="292"/>
      <point x="427" y="366"/>
      <point x="285" y="423" type="curve" smooth="yes"/>
      <point x="210" y="454"/>
      <point x="184" y="480"/>
      <point x="184" y="512" type="curve" smooth="yes"/>
      <point x="184" y="545"/>
      <point x="212" y="574"/>
      <point x="265" y="574" type="curve" smooth="yes"/>
      <point x="318" y="574"/>
      <point x="369" y="550"/>
      <point x="412" y="516" type="curve"/>
      <point x="473" y="635" type="line"/>
      <point x="423" y="673"/>
      <point x="343" y="702"/>
      <point x="267" y="702" type="curve" smooth="yes"/>
      <point x="117" y="702"/>
      <point x="41" y="609"/>
      <point x="41" y="502" type="curve" smooth="yes"/>
      <point x="41" y="411"/>
      <point x="100" y="349"/>
      <point x="234" y="291" type="curve" smooth="yes"/>
      <point x="325" y="252"/>
      <point x="337" y="223"/>
      <point x="337" y="194" type="curve"/>
      <point x="337" y="152"/>
      <point x="307" y="119"/>
      <point x="247" y="119" type="curve" smooth="yes"/>
      <point x="190" y="119"/>
      <point x="123" y="149"/>
      <point x="77" y="191" type="curve"/>
    </contour>
    <contour>
      <point x="199" y="-100" type="line"/>
      <point x="324" y="-100" type="line"/>
      <point x="324" y="82" type="line"/>
      <point x="199" y="82" type="line"/>
    </contour>
    <contour>
      <point x="199" y="597" type="line"/>
      <point x="324" y="597" type="line"/>
      <point x="324" y="790" type="line"/>
      <point x="199" y="790" type="line"/>
    </contour>
  </outline>
</glyph>
<glyph name="ampersand" format="1">
  <advance width="554"/>
  <unicode hex="0026"/>
  <outline>
    <contour>
      <point x="31" y="173" type="curve" smooth="yes"/>
      <point x="31.0" y="61.0"/>
      <point x="112.14673913043478" y="-12.0"/>
      <point x="220" y="-12" type="curve" smooth="yes"/>
      <point x="391.220447284345" y="-12.0"/>
      <point x="472.0" y="140.0"/>
      <point x="528" y="299" type="curve"/>
      <point x="418" y="341" type="line"/>
      <point x="386.0" y="214.80434782608697"/>
      <point x="312" y="116"/>
      <point x="238" y="116" type="curve" smooth="yes"/>
      <point x="193" y="116"/>
      <point x="165" y="145"/>
      <point x="165" y="186" type="curve" smooth="yes"/>
      <point x="165.0" y="220.5742574257426"/>
      <point x="186" y="249"/>
      <point x="232" y="283" type="curve" smooth="yes"/>
      <point x="316" y="346" type="line"/>
      <point x="385.0" y="406.2227979274611"/>
      <point x="427.0" y="472.86387434554973"/>
      <point x="427" y="543" type="curve" smooth="yes"/>
      <point x="427.0" y="633.8571428571429"/>
      <point x="361.7951807228916" y="702.0"/>
      <point x="263" y="702" type="curve" smooth="yes"/>
      <point x="158" y="702"/>
      <point x="88.0" y="629.0"/>
      <point x="88" y="526" type="curve" smooth="yes"/>
      <point x="88.0" y="451.0"/>
      <point x="121.86842105263159" y="400.0"/>
      <point x="166" y="341" type="curve"/>
      <point x="407" y="0" type="line"/>
      <point x="565" y="0" type="line"/>
      <point x="281" y="409" type="line" smooth="yes"/>
      <point x="244" y="462"/>
      <point x="218" y="490"/>
      <point x="218" y="536" type="curve" smooth="yes"/>
      <point x="218" y="567"/>
      <point x="234" y="592"/>
      <point x="263" y="592" type="curve"/>
      <point x="291" y="592"/>
      <point x="307.0" y="567.0"/>
      <point x="307" y="536" type="curve" smooth="yes"/>
      <point x="307.0" y="492.0"/>
      <point x="281.1875" y="464.0"/>
      <point x="248" y="436" type="curve"/>
      <point x="160" y="373" type="line"/>
      <point x="73" y="320"/>
      <point x="31" y="252"/>
    </contour>
  </outline>
</glyph>
<glyph name="asterisk" format="1">
  <advance width="524"/>
  <unicode hex="002A"/>
  <outline>
    <contour>
      <point x="29" y="475" type="line"/>
      <point x="193" y="442" type="line"/>
      <point x="80" y="320" type="line"/>
      <point x="188" y="241" type="line"/>
      <point x="270" y="388" type="line"/>
      <point x="351" y="241" type="line"/>
      <point x="460" y="320" type="line"/>
      <point x="347" y="442" type="line"/>
      <point x="510" y="475" type="line"/>
      <point x="469" y="603" type="line"/>
      <point x="317" y="532" type="line"/>
      <point x="336" y="697" type="line"/>
      <point x="203" y="697" type="line"/>
      <point x="223" y="532" type="line"/>
      <point x="71" y="603" type="line"/>
    </contour>
  </outline>
</glyph>
<glyph name="plus" format="1">
  <advance width="504"/>
  <unicode hex="002B"/>
  <outline>
    <contour>
      <point x="45" y="224" type="line"/>
      <point x="460" y="224" type="line"/>
      <point x="460" y="356" type="line"/>
      <point x="45" y="356" type="line"/>
    </contour>
    <contour>
      <point x="188" y="54" type="line"/>
      <point x="316" y="54" type="line"/>
      <point x="316" y="526" type="line"/>
      <point x="188" y="526" type="line"/>
    </contour>
  </outline>
</glyph>
<glyph name="slash" format="1">
  <advance width="342"/>
  <unicode hex="002F"/>
  <outline>
    <contour>
      <point x="0" y="-30" type="line"/>
      <point x="132" y="-30" type="line"/>
      <point x="342" y="720" type="line"/>
      <point x="210" y="720" type="line"/>
    </contour>
  </outline>
</glyph>
<glyph name="zero" format="1">
  <advance width="504"/>
  <unicode hex="0030"/>
  <outline>
    <contour>
      <point x="20" y="345" type="curve" smooth="yes"/>
      <point x="20" y="77"/>
      <point x="120" y="-12"/>
      <point x="252" y="-12" type="curve" smooth="yes"/>
      <point x="385" y="-12"/>
      <point x="484" y="77"/>
      <point x="484" y="345" type="curve" smooth="yes"/>
      <point x="484" y="613"/>
      <point x="385" y="702"/>
      <point x="252" y="702" type="curve" smooth="yes"/>
      <point x="120" y="702"/>
      <point x="20" y="613"/>
    </contour>
    <contour>
      <point x="163" y="345" type="curve" smooth="yes"/>
      <point x="163.0" y="512.0"/>
      <point x="201.8735632183908" y="567.0"/>
      <point x="252" y="567" type="curve" smooth="yes"/>
      <point x="302.1264367816092" y="567.0"/>
      <point x="341.0" y="512.0"/>
      <point x="341" y="345" type="curve" smooth="yes"/>
      <point x="341.0" y="178.0"/>
      <point x="302.1264367816092" y="123.0"/>
      <point x="252" y="123" type="curve" smooth="yes"/>
      <point x="201.8735632183908" y="123.0"/>
      <point x="163.0" y="178.0"/>
    </contour>
  </outline>
</glyph>
<glyph name="one" format="1">
  <advance width="500"/>
  <unicode hex="0031"/>
  <outline>
    <contour>
      <point x="48.0" y="613" type="line"/>
      <point x="91.0" y="493" type="line"/>
      <point x="252.0" y="560" type="line"/>
      <point x="240.0" y="690" type="line"/>
    </contour>
    <contour>
      <point x="194.0" y="0" type="line"/>
      <point x="334.0" y="0" type="line"/>
      <point x="334.0" y="690" type="line"/>
      <point x="240.0" y="690" type="line"/>
      <point x="194.0" y="637" type="line"/>
    </contour>
    <contour>
      <point x="67.0" y="0" type="line"/>
      <point x="455.0" y="0" type="line"/>
      <point x="455.0" y="122" type="line"/>
      <point x="67.0" y="122" type="line"/>
    </contour>
  </outline>
</glyph>
<glyph name="two" format="1">
  <advance width="500"/>
  <unicode hex="0032"/>
  <outline>
    <contour>
      <point x="25.0" y="594" type="curve"/>
      <point x="101.0" y="493" type="line"/>
      <point x="142.0" y="535"/>
      <point x="185.0" y="563"/>
      <point x="228.0" y="563" type="curve" smooth="yes"/>
      <point x="277.6923076923077" y="563.0"/>
      <point x="304.0" y="528"/>
      <point x="304.0" y="485" type="curve" smooth="yes"/>
      <point x="304.0" y="439"/>
      <point x="277.0" y="398"/>
      <point x="217.0" y="323" type="curve" smooth="yes"/>
      <point x="39.0" y="99" type="line"/>
      <point x="117.0" y="0" type="line"/>
      <point x="302.0" y="231" type="line" smooth="yes"/>
      <point x="396.0" y="342"/>
      <point x="445.0" y="412"/>
      <point x="445.0" y="502" type="curve" smooth="yes"/>
      <point x="445.0" y="621"/>
      <point x="359.0" y="702"/>
      <point x="244.0" y="702" type="curve" smooth="yes"/>
      <point x="157.0" y="702"/>
      <point x="82.0" y="656"/>
    </contour>
    <contour>
      <point x="39.0" y="0" type="line"/>
      <point x="455.0" y="0" type="line"/>
      <point x="455.0" y="132" type="line"/>
      <point x="116.0" y="132" type="line"/>
      <point x="39.0" y="99" type="line"/>
    </contour>
  </outline>
</glyph>
<glyph name="three" format="1">
  <advance width="504"/>
  <unicode hex="0033"/>
  <outline>
    <contour>
      <point x="22" y="73" type="line"/>
      <point x="73" y="23"/>
      <point x="146.23364485981307" y="-12.0"/>
      <point x="233" y="-12" type="curve" smooth="yes"/>
      <point x="360.6651982378855" y="-12.0"/>
      <point x="463.0" y="67.0"/>
      <point x="463" y="219" type="curve" smooth="yes"/>
      <point x="463" y="347"/>
      <point x="371.0" y="421.0"/>
      <point x="246" y="421" type="curve"/>
      <point x="187" y="421" type="line"/>
      <point x="142" y="390" type="line"/>
      <point x="142" y="308" type="line"/>
      <point x="203" y="308" type="line" smooth="yes"/>
      <point x="285.0338983050848" y="308.0"/>
      <point x="324.0" y="271.0"/>
      <point x="324" y="217" type="curve" smooth="yes"/>
      <point x="324.0" y="156.0"/>
      <point x="285" y="119"/>
      <point x="223" y="119" type="curve" smooth="yes"/>
      <point x="174" y="119"/>
      <point x="128" y="143"/>
      <point x="94" y="180" type="curve"/>
    </contour>
    <contour>
      <point x="51" y="558" type="line"/>
      <point x="395" y="558" type="line"/>
      <point x="436" y="591" type="line"/>
      <point x="436" y="690" type="line"/>
      <point x="51" y="690" type="line"/>
    </contour>
    <contour>
      <point x="142" y="390" type="line"/>
      <point x="282" y="390" type="line"/>
      <point x="436" y="591" type="line"/>
      <point x="365" y="690" type="line"/>
    </contour>
  </outline>
</glyph>
<glyph name="four" format="1">
  <advance width="504"/>
  <unicode hex="0034"/>
  <outline>
    <contour>
      <point x="15" y="214" type="line"/>
      <point x="110" y="120" type="line"/>
      <point x="351" y="690" type="line"/>
      <point x="242" y="690" type="line"/>
    </contour>
    <contour>
      <point x="15" y="120" type="line"/>
      <point x="490" y="120" type="line"/>
      <point x="490" y="247" type="line"/>
      <point x="53" y="247" type="line"/>
      <point x="15" y="214" type="line"/>
    </contour>
    <contour>
      <point x="289" y="0" type="line"/>
      <point x="423" y="0" type="line"/>
      <point x="423" y="690" type="line"/>
      <point x="289" y="690" type="line"/>
    </contour>
  </outline>
</glyph>
<glyph name="five" format="1">
  <advance width="504"/>
  <unicode hex="0035"/>
  <outline>
    <contour>
      <point x="32" y="74" type="line"/>
      <point x="86.5142857142857" y="19.0"/>
      <point x="158.1904761904762" y="-12.0"/>
      <point x="244" y="-12" type="curve" smooth="yes"/>
      <point x="357.0086956521739" y="-12.0"/>
      <point x="472.0" y="64.0"/>
      <point x="472" y="220" type="curve" smooth="yes"/>
      <point x="472" y="357"/>
      <point x="384.10769230769233" y="439.0"/>
      <point x="275" y="439" type="curve" smooth="yes"/>
      <point x="209.85161290322583" y="439.0"/>
      <point x="155.56129032258065" y="413.0289855072464"/>
      <point x="122" y="375" type="curve"/>
      <point x="122" y="266" type="line"/>
      <point x="153.57407407407408" y="297.75471698113205"/>
      <point x="191" y="317"/>
      <point x="232" y="317" type="curve" smooth="yes"/>
      <point x="301.0" y="317.0"/>
      <point x="333.0" y="271.92929292929296"/>
      <point x="333" y="220" type="curve" smooth="yes"/>
      <point x="333.0" y="157.76767676767676"/>
      <point x="291.18811881188117" y="119.0"/>
      <point x="230" y="119" type="curve" smooth="yes"/>
      <point x="179.0" y="119.0"/>
      <point x="138" y="144"/>
      <point x="104" y="179" type="curve"/>
    </contour>
    <contour>
      <point x="64" y="309" type="line"/>
      <point x="122" y="266" type="line"/>
      <point x="185" y="338" type="line"/>
      <point x="202" y="690" type="line"/>
      <point x="83" y="690" type="line"/>
    </contour>
    <contour>
      <point x="83" y="690" type="line"/>
      <point x="137" y="559" type="line"/>
      <point x="432" y="559" type="line"/>
      <point x="432" y="690" type="line"/>
    </contour>
  </outline>
</glyph>
<glyph name="six" format="1">
  <advance width="500"/>
  <unicode hex="0036"/>
  <outline>
    <contour>
      <point x="27.0" y="301" type="curve" smooth="yes"/>
      <point x="27.0" y="103.0"/>
      <point x="119.0" y="-12"/>
      <point x="263.0" y="-12" type="curve"/>
      <point x="383.0" y="-12"/>
      <point x="475.0" y="97"/>
      <point x="475.0" y="235" type="curve" smooth="yes"/>
      <point x="475.0" y="370"/>
      <point x="396.29834254143645" y="448.0"/>
      <point x="290.0" y="448" type="curve" smooth="yes"/>
      <point x="233.6934306569343" y="448.0"/>
      <point x="182.24087591240874" y="421.0"/>
      <point x="157.0" y="381" type="curve"/>
      <point x="157.0" y="280" type="line"/>
      <point x="185.0" y="307"/>
      <point x="216.16" y="329.0"/>
      <point x="259.0" y="329" type="curve" smooth="yes"/>
      <point x="309.4" y="329.0"/>
      <point x="343.0" y="301"/>
      <point x="343.0" y="227" type="curve" smooth="yes"/>
      <point x="343.0" y="168"/>
      <point x="316.0" y="116"/>
      <point x="262.0" y="116" type="curve"/>
      <point x="205.0" y="116"/>
      <point x="162.0" y="181"/>
      <point x="162.0" y="277" type="curve" smooth="yes"/>
      <point x="162.0" y="490"/>
      <point x="251.0" y="573"/>
      <point x="313.0" y="573" type="curve" smooth="yes"/>
      <point x="335.0" y="573"/>
      <point x="363.0" y="568.56"/>
      <point x="391.0" y="552" type="curve"/>
      <point x="450.0" y="666" type="line"/>
      <point x="409.4583333333333" y="690.6315789473684"/>
      <point x="377.0" y="702"/>
      <point x="321.0" y="702" type="curve"/>
      <point x="163.0" y="702"/>
      <point x="27.0" y="541"/>
    </contour>
  </outline>
</glyph>
<glyph name="seven" format="1">
  <advance width="504"/>
  <unicode hex="0037"/>
  <outline>
    <contour>
      <point x="31" y="547" type="line"/>
      <point x="405" y="547" type="line"/>
      <point x="446" y="585" type="line"/>
      <point x="446" y="690" type="line"/>
      <point x="31" y="690" type="line"/>
    </contour>
    <contour>
      <point x="101" y="0" type="line"/>
      <point x="252" y="0" type="line"/>
      <point x="446" y="585" type="line"/>
      <point x="338" y="690" type="line"/>
    </contour>
  </outline>
</glyph>
<glyph name="eight" format="1">
  <advance width="504"/>
  <unicode hex="0038"/>
  <outline>
    <contour>
      <point x="28" y="174" type="curve" smooth="yes"/>
      <point x="28.0" y="65.0"/>
      <point x="120.0" y="-12.0"/>
      <point x="249" y="-12" type="curve" smooth="yes"/>
      <point x="371.45814977973566" y="-12.0"/>
      <point x="475.0" y="59.0"/>
      <point x="475" y="191" type="curve" smooth="yes"/>
      <point x="475.0" y="284.0"/>
      <point x="420.4572864321608" y="357.4666666666667"/>
      <point x="274" y="418" type="curve" smooth="yes"/>
      <point x="205.55555555555554" y="446.38947368421054"/>
      <point x="186.0" y="477.0"/>
      <point x="186" y="511" type="curve" smooth="yes"/>
      <point x="186.0" y="547.0"/>
      <point x="211.62857142857143" y="582.0"/>
      <point x="255" y="582" type="curve" smooth="yes"/>
      <point x="298.6515151515151" y="582.0"/>
      <point x="322.0" y="550.0"/>
      <point x="322" y="511" type="curve" smooth="yes"/>
      <point x="322.0" y="468.0"/>
      <point x="293.8072289156627" y="430.8247422680413"/>
      <point x="244" y="410" type="curve"/>
      <point x="330" y="360" type="line"/>
      <point x="391.0" y="386.0"/>
      <point x="452.0" y="445.0"/>
      <point x="452" y="532" type="curve" smooth="yes"/>
      <point x="452.0" y="634.0"/>
      <point x="371.17525773195877" y="702.0"/>
      <point x="256" y="702" type="curve" smooth="yes"/>
      <point x="128.23444976076556" y="702.0"/>
      <point x="49.0" y="616.0"/>
      <point x="49" y="516" type="curve" smooth="yes"/>
      <point x="49.0" y="429.0"/>
      <point x="98.51578947368421" y="359.1588785046729"/>
      <point x="241" y="296" type="curve" smooth="yes"/>
      <point x="320.17525773195877" y="261.6666666666667"/>
      <point x="337.0" y="230.0"/>
      <point x="337" y="193" type="curve" smooth="yes"/>
      <point x="337.0" y="150.0"/>
      <point x="308.0" y="111.0"/>
      <point x="253" y="111" type="curve" smooth="yes"/>
      <point x="201.0" y="111.0"/>
      <point x="164.0" y="151.0"/>
      <point x="164" y="194" type="curve" smooth="yes"/>
      <point x="164.0" y="243.0"/>
      <point x="196.55405405405406" y="283.0"/>
      <point x="237" y="304" type="curve"/>
      <point x="169" y="368" type="line"/>
      <point x="104.0078125" y="339.68648648648644"/>
      <point x="28.0" y="272.0"/>
    </contour>
  </outline>
</glyph>
<glyph name="nine" format="1">
  <advance width="500"/>
  <unicode hex="0039"/>
  <outline>
    <contour>
      <point x="25.0" y="450" type="curve" smooth="yes"/>
      <point x="25.0" y="324.79611650485435"/>
      <point x="105.00000000000001" y="242.0"/>
      <point x="212.0" y="242" type="curve" smooth="yes"/>
      <point x="268.0" y="242"/>
      <point x="319.1654676258992" y="268.0"/>
      <point x="345.0" y="307" type="curve"/>
      <point x="345.0" y="415" type="line"/>
      <point x="322.0" y="386"/>
      <point x="285.0" y="361"/>
      <point x="241.0" y="361" type="curve" smooth="yes"/>
      <point x="192.0" y="361"/>
      <point x="159.0" y="399.22"/>
      <point x="159.0" y="459" type="curve" smooth="yes"/>
      <point x="159.0" y="521.0796460176991"/>
      <point x="194.8235294117647" y="574.0"/>
      <point x="246.0" y="574" type="curve" smooth="yes"/>
      <point x="296.92783505154637" y="574.0"/>
      <point x="341.0" y="527.0"/>
      <point x="341.0" y="375" type="curve" smooth="yes"/>
      <point x="341.0" y="167.0"/>
      <point x="264.95104895104896" y="115.0"/>
      <point x="196.0" y="115" type="curve" smooth="yes"/>
      <point x="165.0" y="115.0"/>
      <point x="135.0" y="123.0"/>
      <point x="104.0" y="143" type="curve"/>
      <point x="48.0" y="33" type="line"/>
      <point x="92.0" y="3.9999999999999964"/>
      <point x="144.0" y="-12.0"/>
      <point x="201.0" y="-12" type="curve" smooth="yes"/>
      <point x="344.05185185185184" y="-12.0"/>
      <point x="473.0" y="110.0"/>
      <point x="473.0" y="377" type="curve" smooth="yes"/>
      <point x="473.0" y="583.0"/>
      <point x="388.7692307692308" y="702.0"/>
      <point x="254.0" y="702" type="curve" smooth="yes"/>
      <point x="113.77533039647577" y="702.0"/>
      <point x="25.0" y="594.8503937007874"/>
    </contour>
  </outline>
</glyph>
<glyph name="less" format="1">
  <advance width="504"/>
  <unicode hex="003C"/>
  <outline>
    <contour>
      <point x="56" y="224" type="line"/>
      <point x="431" y="37" type="line"/>
      <point x="431" y="197" type="line"/>
      <point x="154" y="320" type="line"/>
      <point x="56" y="320" type="line"/>
    </contour>
    <contour>
      <point x="56" y="261" type="line"/>
      <point x="154" y="261" type="line"/>
      <point x="431" y="382" type="line"/>
      <point x="431" y="538" type="line"/>
      <point x="56" y="351" type="line"/>
    </contour>
  </outline>
</glyph>
<glyph name="greater" format="1">
  <advance width="504"/>
  <unicode hex="003E"/>
  <outline>
    <contour>
      <point x="448" y="224" type="line"/>
      <point x="448" y="320" type="line"/>
      <point x="350" y="320" type="line"/>
      <point x="73" y="197" type="line"/>
      <point x="73" y="37" type="line"/>
    </contour>
    <contour>
      <point x="448" y="261" type="line"/>
      <point x="448" y="351" type="line"/>
      <point x="73" y="538" type="line"/>
      <point x="73" y="382" type="line"/>
      <point x="350" y="261" type="line"/>
    </contour>
  </outline>
</glyph>
<glyph name="A" format="1">
  <advance width="551"/>
  <unicode hex="0041"/>
  <outline>
    <contour>
      <point x="-2" y="0" type="line"/>
      <point x="143" y="0" type="line"/>
      <point x="283" y="544" type="line"/>
      <point x="276" y="690" type="line"/>
      <point x="195" y="690" type="line"/>
    </contour>
    <contour>
      <point x="144" y="145" type="line"/>
      <point x="414" y="145" type="line"/>
      <point x="414" y="266" type="line"/>
      <point x="144" y="266" type="line"/>
    </contour>
    <contour>
      <point x="265" y="544" type="line"/>
      <point x="405" y="0" type="line"/>
      <point x="553" y="0" type="line"/>
      <point x="356" y="690" type="line"/>
      <point x="268" y="690" type="line"/>
    </contour>
    <contour>
      <point x="275.0" y="690.0" type="move" name="top"/>
    </contour>
    <contour>
      <point x="403.0" y="0.0" type="move" name="ogonek"/>
    </contour>
    <contour>
      <point x="275.0" y="0.0" type="move" name="bottom"/>
    </contour>
  </outline>
</glyph>
<glyph name="C" format="1">
  <advance width="550"/>
  <unicode hex="0043"/>
  <outline>
    <contour>
      <point x="36" y="347" type="curve" smooth="yes"/>
      <point x="36" y="104"/>
      <point x="160.91512915129152" y="-12.0"/>
      <point x="309" y="-12" type="curve" smooth="yes"/>
      <point x="399.153488372093" y="-12.0"/>
      <point x="464.1857142857143" y="22.0"/>
      <point x="522" y="76" type="curve"/>
      <point x="446" y="186" type="line"/>
      <point x="411.135593220339" y="152.0"/>
      <point x="370.2520325203252" y="130.0"/>
      <point x="325" y="130" type="curve" smooth="yes"/>
      <point x="245.90140845070422" y="130.0"/>
      <point x="181" y="207"/>
      <point x="181" y="340" type="curve" smooth="yes"/>
      <point x="181" y="483"/>
      <point x="245.0" y="562.0"/>
      <point x="322" y="562" type="curve" smooth="yes"/>
      <point x="368.0" y="562.0"/>
      <point x="407.0" y="542.0"/>
      <point x="443" y="512" type="curve"/>
      <point x="518" y="628" type="line"/>
      <point x="457.3717277486911" y="676.0"/>
      <point x="400" y="702"/>
      <point x="325" y="702" type="curve" smooth="yes"/>
      <point x="151" y="702"/>
      <point x="36" y="560"/>
    </contour>
    <contour>
      <point x="318.0" y="690.0" type="move" name="top"/>
    </contour>
    <contour>
      <point x="318.0" y="0.0" type="move" name="bottom"/>
    </contour>
  </outline>
</glyph>
<glyph name="D" format="1">
  <advance width="611"/>
  <unicode hex="0044"/>
  <outline>
    <contour>
      <point x="70" y="0" type="line"/>
      <point x="212" y="0" type="line"/>
      <point x="212" y="690" type="line"/>
      <point x="70" y="690" type="line"/>
    </contour>
    <contour>
      <point x="135" y="0" type="line"/>
      <point x="294" y="0" type="line" smooth="yes"/>
      <point x="453.0" y="0.0"/>
      <point x="575" y="119"/>
      <point x="575" y="350" type="curve" smooth="yes"/>
      <point x="575" y="575"/>
      <point x="453.0" y="690.0"/>
      <point x="294" y="690" type="curve" smooth="yes"/>
      <point x="135" y="690" type="line"/>
      <point x="135" y="558" type="line"/>
      <point x="281" y="558" type="line" smooth="yes"/>
      <point x="371" y="558"/>
      <point x="430" y="496"/>
      <point x="430" y="345" type="curve" smooth="yes"/>
      <point x="430" y="194"/>
      <point x="371" y="132"/>
      <point x="281" y="132" type="curve" smooth="yes"/>
      <point x="135" y="132" type="line"/>
    </contour>
    <contour>
      <point x="272.0" y="690.0" type="move" name="top"/>
    </contour>
  </outline>
</glyph>
<glyph name="H" format="1">
  <advance width="635"/>
  <unicode hex="0048"/>
  <outline>
    <contour>
      <point x="70" y="0" type="line"/>
      <point x="212" y="0" type="line"/>
      <point x="212" y="690" type="line"/>
      <point x="70" y="690" type="line"/>
    </contour>
    <contour>
      <point x="135" y="282" type="line"/>
      <point x="501" y="282" type="line"/>
      <point x="501" y="414" type="line"/>
      <point x="135" y="414" type="line"/>
    </contour>
    <contour>
      <point x="424" y="0" type="line"/>
      <point x="566" y="0" type="line"/>
      <point x="566" y="690" type="line"/>
      <point x="424" y="690" type="line"/>
    </contour>
    <contour>
      <point x="318.0" y="690.0" type="move" name="top"/>
    </contour>
  </outline>
</glyph>
<glyph name="I" format="1">
  <advance width="396"/>
  <unicode hex="0049"/>
  <outline>
    <contour>
      <point x="58" y="0" type="line"/>
      <point x="339" y="0" type="line"/>
      <point x="339" y="119" type="line"/>
      <point x="58" y="119" type="line"/>
    </contour>
    <contour>
      <point x="58" y="571" type="line"/>
      <point x="339" y="571" type="line"/>
      <point x="339" y="690" type="line"/>
      <point x="58" y="690" type="line"/>
    </contour>
    <contour>
      <point x="127" y="0" type="line"/>
      <point x="269" y="0" type="line"/>
      <point x="269" y="690" type="line"/>
      <point x="127" y="690" type="line"/>
    </contour>
    <contour>
      <point x="198.0" y="690.0" type="move" name="top"/>
    </contour>
    <contour>
      <point x="125.0" y="0.0" type="move" name="ogonek"/>
    </contour>
    <contour>
      <point x="198.0" y="0.0" type="move" name="bottom"/>
    </contour>
  </outline>
</glyph>
<glyph name="K" format="1">
  <advance width="571"/>
  <unicode hex="004B"/>
  <outline>
    <contour>
      <point x="70" y="0" type="line"/>
      <point x="212" y="0" type="line"/>
      <point x="212" y="690" type="line"/>
      <point x="70" y="690" type="line"/>
    </contour>
    <contour>
      <point x="155" y="117" type="line"/>
      <point x="299" y="334" type="line"/>
      <point x="325" y="344" type="line"/>
      <point x="565" y="690" type="line"/>
      <point x="406" y="690" type="line"/>
      <point x="155" y="328" type="line"/>
    </contour>
    <contour>
      <point x="257" y="298" type="line"/>
      <point x="412" y="0" type="line"/>
      <point x="573" y="0" type="line"/>
      <point x="343" y="428" type="line"/>
    </contour>
  </outline>
</glyph>
<glyph name="M" format="1">
  <advance width="719"/>
  <unicode hex="004D"/>
  <outline>
    <contour>
      <point x="70" y="0" type="line"/>
      <point x="205" y="0" type="line"/>
      <point x="205" y="690" type="line"/>
      <point x="70" y="690" type="line"/>
    </contour>
    <contour>
      <point x="139" y="690" type="line"/>
      <point x="307" y="143" type="line"/>
      <point x="366" y="143" type="line"/>
      <point x="370" y="322" type="line"/>
      <point x="243" y="690" type="line"/>
    </contour>
    <contour>
      <point x="515" y="0" type="line"/>
      <point x="650" y="0" type="line"/>
      <point x="650" y="690" type="line"/>
      <point x="515" y="690" type="line"/>
    </contour>
    <contour>
      <point x="581" y="690" type="line"/>
      <point x="477" y="690" type="line"/>
      <point x="350" y="322" type="line"/>
      <point x="354" y="143" type="line"/>
      <point x="413" y="143" type="line"/>
    </contour>
  </outline>
</glyph>
<glyph name="N" format="1">
  <advance width="639"/>
  <unicode hex="004E"/>
  <outline>
    <contour>
      <point x="70" y="0" type="line"/>
      <point x="196" y="0" type="line"/>
      <point x="196" y="690" type="line"/>
      <point x="70" y="690" type="line"/>
    </contour>
    <contour>
      <point x="108" y="690" type="line"/>
      <point x="411" y="0" type="line"/>
      <point x="542" y="0" type="line"/>
      <point x="239" y="690" type="line"/>
    </contour>
    <contour>
      <point x="443" y="0" type="line"/>
      <point x="569" y="0" type="line"/>
      <point x="569" y="690" type="line"/>
      <point x="443" y="690" type="line"/>
    </contour>
    <contour>
      <point x="334.0" y="690.0" type="move" name="top"/>
    </contour>
    <contour>
      <point x="301.0" y="0.0" type="move" name="bottom"/>
    </contour>
  </outline>
</glyph>
<glyph name="O" format="1">
  <advance width="627"/>
  <unicode hex="004F"/>
  <outline>
    <contour>
      <point x="36" y="345" type="curve" smooth="yes"/>
      <point x="36" y="111"/>
      <point x="151" y="-12"/>
      <point x="314" y="-12" type="curve"/>
      <point x="476" y="-12"/>
      <point x="591" y="111"/>
      <point x="591" y="345" type="curve" smooth="yes"/>
      <point x="591" y="579"/>
      <point x="476" y="702"/>
      <point x="314" y="702" type="curve" smooth="yes"/>
      <point x="151" y="702"/>
      <point x="36" y="579"/>
    </contour>
    <contour>
      <point x="181" y="345" type="curve" smooth="yes"/>
      <point x="181" y="504"/>
      <point x="231" y="567"/>
      <point x="314" y="567" type="curve" smooth="yes"/>
      <point x="396" y="567"/>
      <point x="446" y="504"/>
      <point x="446" y="345" type="curve" smooth="yes"/>
      <point x="446" y="186"/>
      <point x="396" y="123"/>
      <point x="314" y="123" type="curve"/>
      <point x="231" y="123"/>
      <point x="181" y="186"/>
    </contour>
    <contour>
      <point x="314.0" y="690.0" type="move" name="top"/>
    </contour>
    <contour>
      <point x="326.0" y="0.0" type="move" name="ogonek"/>
    </contour>
    <contour>
      <point x="314.0" y="0.0" type="move" name="bottom"/>
    </contour>
  </outline>
</glyph>
<glyph name="S" format="1">
  <advance width="538"/>
  <unicode hex="0053"/>
  <outline>
    <contour>
      <point x="28" y="72" type="line"/>
      <point x="98" y="20"/>
      <point x="175" y="-12"/>
      <point x="260" y="-12" type="curve"/>
      <point x="413" y="-12"/>
      <point x="502" y="84"/>
      <point x="502" y="203" type="curve" smooth="yes"/>
      <point x="502" y="292"/>
      <point x="444" y="366"/>
      <point x="302" y="423" type="curve" smooth="yes"/>
      <point x="227.0" y="454.2967032967033"/>
      <point x="201.0" y="479.72527472527474"/>
      <point x="201" y="512" type="curve" smooth="yes"/>
      <point x="201.0" y="545.0666666666666"/>
      <point x="229.22727272727275" y="574.0"/>
      <point x="282" y="574" type="curve" smooth="yes"/>
      <point x="334.6296296296296" y="574.0"/>
      <point x="386.3518518518519" y="550.1176470588234"/>
      <point x="429" y="516" type="curve"/>
      <point x="490" y="635" type="line"/>
      <point x="440.2085308056872" y="673.2857142857142"/>
      <point x="360.1516587677725" y="702.0"/>
      <point x="284" y="702" type="curve" smooth="yes"/>
      <point x="133.67420814479638" y="702.0"/>
      <point x="58.0" y="609.0"/>
      <point x="58" y="502" type="curve" smooth="yes"/>
      <point x="58" y="411"/>
      <point x="117" y="349"/>
      <point x="251" y="291" type="curve" smooth="yes"/>
      <point x="342" y="252"/>
      <point x="354" y="223"/>
      <point x="354" y="194" type="curve"/>
      <point x="354" y="152"/>
      <point x="324.0" y="119.0"/>
      <point x="264" y="119" type="curve" smooth="yes"/>
      <point x="207" y="119"/>
      <point x="140.27777777777777" y="149.0"/>
      <point x="94" y="191" type="curve"/>
    </contour>
    <contour>
      <point x="279.0" y="690.0" type="move" name="top"/>
    </contour>
    <contour>
      <point x="258.0" y="0.0" type="move" name="bottom"/>
    </contour>
  </outline>
</glyph>
<glyph name="T" format="1">
  <advance width="493"/>
  <unicode hex="0054"/>
  <outline>
    <contour>
      <point x="20" y="558" type="line"/>
      <point x="473" y="558" type="line"/>
      <point x="473" y="690" type="line"/>
      <point x="20" y="690" type="line"/>
    </contour>
    <contour>
      <point x="176" y="0" type="line"/>
      <point x="318" y="0" type="line"/>
      <point x="318" y="690" type="line"/>
      <point x="176" y="690" type="line"/>
    </contour>
    <contour>
      <point x="247.0" y="690.0" type="move" name="top"/>
    </contour>
    <contour>
      <point x="247.0" y="0.0" type="move" name="bottom"/>
    </contour>
  </outline>
</glyph>
<glyph name="U" format="1">
  <advance width="610"/>
  <unicode hex="0055"/>
  <outline>
    <contour>
      <point x="61" y="271" type="line" smooth="yes"/>
      <point x="61" y="75"/>
      <point x="158" y="-12"/>
      <point x="305" y="-12" type="curve" smooth="yes"/>
      <point x="452" y="-12"/>
      <point x="549" y="75"/>
      <point x="549" y="271" type="curve" smooth="yes"/>
      <point x="549" y="690" type="line"/>
      <point x="411" y="690" type="line"/>
      <point x="411" y="290" type="line" smooth="yes"/>
      <point x="411" y="165"/>
      <point x="376" y="123"/>
      <point x="307" y="123" type="curve" smooth="yes"/>
      <point x="238" y="123"/>
      <point x="203" y="165"/>
      <point x="203" y="290" type="curve" smooth="yes"/>
      <point x="203" y="690" type="line"/>
      <point x="61" y="690" type="line"/>
    </contour>
    <contour>
      <point x="307.0" y="690.0" type="move" name="top"/>
    </contour>
    <contour>
      <point x="329.0" y="0.0" type="move" name="ogonek"/>
    </contour>
    <contour>
      <point x="305.0" y="0.0" type="move" name="bottom"/>
    </contour>
  </outline>
</glyph>
<glyph name="X" format="1">
  <advance width="522"/>
  <unicode hex="0058"/>
  <outline>
    <contour>
      <point x="7" y="0" type="line"/>
      <point x="159" y="0" type="line"/>
      <point x="284" y="263" type="line"/>
      <point x="330" y="326" type="line"/>
      <point x="506" y="690" type="line"/>
      <point x="352" y="690" type="line"/>
      <point x="250" y="453" type="line"/>
      <point x="198" y="387" type="line"/>
    </contour>
    <contour>
      <point x="7" y="690" type="line"/>
      <point x="216" y="294" type="line"/>
      <point x="357" y="0" type="line"/>
      <point x="522" y="0" type="line"/>
      <point x="299" y="424" type="line"/>
      <point x="171" y="690" type="line"/>
    </contour>
  </outline>
</glyph>
<glyph name="Y" format="1">
  <advance width="556"/>
  <unicode hex="0059"/>
  <outline>
    <contour>
      <point x="2" y="690" type="line"/>
      <point x="218" y="261" type="line"/>
      <point x="290" y="261" type="line"/>
      <point x="294" y="389" type="line"/>
      <point x="152" y="690" type="line"/>
    </contour>
    <contour>
      <point x="207" y="0" type="line"/>
      <point x="349" y="0" type="line"/>
      <point x="349" y="294" type="line"/>
      <point x="207" y="294" type="line"/>
    </contour>
    <contour>
      <point x="266" y="389" type="line"/>
      <point x="273" y="261" type="line"/>
      <point x="337" y="261" type="line"/>
      <point x="554" y="690" type="line"/>
      <point x="408" y="690" type="line"/>
    </contour>
    <contour>
      <point x="279.0" y="690.0" type="move" name="top"/>
    </contour>
  </outline>
</glyph>
<glyph name="Z" format="1">
  <advance width="546"/>
  <unicode hex="005A"/>
  <outline>
    <contour>
      <point x="46" y="99" type="line"/>
      <point x="141" y="0" type="line"/>
      <point x="492" y="591" type="line"/>
      <point x="397" y="690" type="line"/>
    </contour>
    <contour>
      <point x="46" y="0" type="line"/>
      <point x="501" y="0" type="line"/>
      <point x="501" y="127" type="line"/>
      <point x="97" y="127" type="line"/>
      <point x="46" y="99" type="line"/>
    </contour>
    <contour>
      <point x="54" y="563" type="line"/>
      <point x="443" y="563" type="line"/>
      <point x="492" y="591" type="line"/>
      <point x="492" y="690" type="line"/>
      <point x="54" y="690" type="line"/>
    </contour>
    <contour>
      <point x="273.0" y="690.0" type="move" name="top"/>
    </contour>
  </outline>
</glyph>
<glyph name="backslash" format="1">
  <advance width="342"/>
  <unicode hex="005C"/>
  <outline>
    <contour>
      <point x="0" y="720" type="line"/>
      <point x="207" y="-30" type="line"/>
      <point x="342" y="-30" type="line"/>
      <point x="135" y="720" type="line"/>
    </contour>
  </outline>
</glyph>
<glyph name="bracketright" format="1">
  <advance width="269"/>
  <unicode hex="005D"/>
  <outline>
    <contour>
      <point x="-47" y="-300" type="line"/>
      <point x="200" y="-300" type="line"/>
      <point x="200" y="-175" type="line"/>
      <point x="-47" y="-175" type="line"/>
    </contour>
    <contour>
      <point x="-47" y="710" type="line"/>
      <point x="200" y="710" type="line"/>
      <point x="200" y="835" type="line"/>
      <point x="-47" y="835" type="line"/>
    </contour>
    <contour>
      <point x="72" y="-300" type="line"/>
      <point x="200" y="-300" type="line"/>
      <point x="200" y="835" type="line"/>
      <point x="72" y="835" type="line"/>
    </contour>
  </outline>
</glyph>
<glyph name="asciicircum" format="1">
  <advance width="504"/>
  <unicode hex="005E"/>
  <outline>
    <contour>
      <point x="37" y="248" type="line"/>
      <point x="200" y="690" type="line"/>
      <point x="280" y="690" type="line"/>
      <point x="277" y="581" type="line"/>
      <point x="171" y="248" type="line"/>
    </contour>
    <contour>
      <point x="234" y="690" type="line"/>
      <point x="322" y="690" type="line"/>
      <point x="485" y="248" type="line"/>
      <point x="347" y="248" type="line"/>
      <point x="239" y="580" type="line"/>
    </contour>
  </outline>
</glyph>
<glyph name="underscore" format="1">
  <advance width="388"/>
  <unicode hex="005F"/>
  <outline>
    <contour>
      <point x="0" y="-125" type="line"/>
      <point x="388" y="-125" type="line"/>
      <point x="388" y="0" type="line"/>
      <point x="0" y="0" type="line"/>
    </contour>
  </outline>
</glyph>
<glyph name="grave" format="1">
  <advance width="504"/>
  <unicode hex="0060"/>
  <outline>
    <contour>
      <point x="99" y="751" type="line"/>
      <point x="244" y="751" type="line"/>
      <point x="311" y="601" type="line"/>
      <point x="201" y="601" type="line"/>
    </contour>
    <contour>
      <point x="252.0" y="526.0" type="move" name="_top"/>
    </contour>
  </outline>
</glyph>
<glyph name="c" format="1">
  <advance width="416"/>
  <unicode hex="0063"/>
  <outline>
    <contour>
      <point x="25" y="257" type="curve" smooth="yes"/>
      <point x="25.0" y="94.02919708029196"/>
      <point x="120" y="-12"/>
      <point x="256" y="-12" type="curve"/>
      <point x="323" y="-12"/>
      <point x="379" y="8"/>
      <point x="414" y="35" type="curve"/>
      <point x="359" y="142" type="line"/>
      <point x="338" y="129"/>
      <point x="312.0" y="119.0"/>
      <point x="276" y="119" type="curve" smooth="yes"/>
      <point x="212.0" y="119.0"/>
      <point x="165.0" y="170.70344827586206"/>
      <point x="165" y="266" type="curve" smooth="yes"/>
      <point x="165.0" y="359.0"/>
      <point x="211.8846153846154" y="406.0"/>
      <point x="271" y="406" type="curve" smooth="yes"/>
      <point x="295.0" y="406.0"/>
      <point x="320" y="397"/>
      <point x="338" y="384" type="curve"/>
      <point x="393" y="497" type="line"/>
      <point x="355.0" y="521.1794871794872"/>
      <point x="314" y="537"/>
      <point x="262" y="537" type="curve" smooth="yes"/>
      <point x="124" y="537"/>
      <point x="25.0" y="428.04347826086956"/>
    </contour>
    <contour>
      <point x="256.0" y="526.0" type="move" name="top"/>
    </contour>
    <contour>
      <point x="243.0" y="0.0" type="move" name="bottom"/>
    </contour>
  </outline>
</glyph>
<glyph name="k" format="1">
  <advance width="491"/>
  <unicode hex="006B"/>
  <outline>
    <contour>
      <point x="60" y="0" type="line"/>
      <point x="196" y="0" type="line"/>
      <point x="196" y="735" type="line"/>
      <point x="60" y="715" type="line"/>
    </contour>
    <contour>
      <point x="141" y="95" type="line"/>
      <point x="483" y="525" type="line"/>
      <point x="327" y="525" type="line"/>
      <point x="141" y="277" type="line"/>
    </contour>
    <contour>
      <point x="205" y="270" type="line"/>
      <point x="343" y="0" type="line"/>
      <point x="494" y="0" type="line"/>
      <point x="296" y="365" type="line"/>
    </contour>
    <contour>
      <point x="265.0" y="0.0" type="move" name="bottom"/>
    </contour>
  </outline>
</glyph>
<glyph name="l" format="1">
  <advance width="257"/>
  <unicode hex="006C"/>
  <outline>
    <contour>
      <point x="60" y="0" type="line"/>
      <point x="197" y="0" type="line"/>
      <point x="197" y="735" type="line"/>
      <point x="60" y="715" type="line"/>
    </contour>
    <contour>
      <point x="129.0" y="720.0" type="move" name="top"/>
    </contour>
    <contour>
      <point x="257.0" y="720.0" type="move" name="caron.alt"/>
    </contour>
    <contour>
      <point x="129.0" y="0.0" type="move" name="bottom"/>
    </contour>
  </outline>
</glyph>
<glyph name="n" format="1">
  <advance width="538"/>
  <unicode hex="006E"/>
  <outline>
    <contour>
      <point x="48" y="525" type="line"/>
      <point x="54" y="476" type="line" smooth="yes"/>
      <point x="58" y="447"/>
      <point x="60" y="429"/>
      <point x="60" y="401" type="curve" smooth="yes"/>
      <point x="60" y="0" type="line"/>
      <point x="197" y="0" type="line"/>
      <point x="197" y="446" type="line"/>
      <point x="182" y="525" type="line"/>
    </contour>
    <contour>
      <point x="185" y="367" type="line"/>
      <point x="208.0" y="392.0"/>
      <point x="244.0" y="405.0"/>
      <point x="275" y="405" type="curve" smooth="yes"/>
      <point x="316.0" y="405.0"/>
      <point x="345.0" y="380.1607142857143"/>
      <point x="345" y="298" type="curve" smooth="yes"/>
      <point x="345" y="0" type="line"/>
      <point x="482" y="0" type="line"/>
      <point x="482" y="332" type="line" smooth="yes"/>
      <point x="482" y="481"/>
      <point x="403" y="537"/>
      <point x="327" y="537" type="curve" smooth="yes"/>
      <point x="265" y="537"/>
      <point x="218.0" y="507.0625"/>
      <point x="185" y="463" type="curve"/>
    </contour>
    <contour>
      <point x="275.0" y="526.0" type="move" name="top"/>
    </contour>
    <contour>
      <point x="272.0" y="0.0" type="move" name="bottom"/>
    </contour>
  </outline>
</glyph>
<glyph name="o" format="1">
  <advance width="501"/>
  <unicode hex="006F"/>
  <outline>
    <contour>
      <point x="29" y="262" type="curve" smooth="yes"/>
      <point x="29" y="81"/>
      <point x="120" y="-12"/>
      <point x="251" y="-12" type="curve" smooth="yes"/>
      <point x="381" y="-12"/>
      <point x="472" y="81"/>
      <point x="472" y="262" type="curve" smooth="yes"/>
      <point x="472" y="444"/>
      <point x="381" y="537"/>
      <point x="251" y="537" type="curve" smooth="yes"/>
      <point x="120" y="537"/>
      <point x="29" y="444"/>
    </contour>
    <contour>
      <point x="167" y="262" type="curve" smooth="yes"/>
      <point x="167" y="380"/>
      <point x="201" y="413"/>
      <point x="251" y="413" type="curve" smooth="yes"/>
      <point x="300" y="413"/>
      <point x="334" y="380"/>
      <point x="334" y="262" type="curve" smooth="yes"/>
      <point x="334" y="145"/>
      <point x="300" y="113"/>
      <point x="251" y="113" type="curve" smooth="yes"/>
      <point x="201" y="113"/>
      <point x="167" y="145"/>
    </contour>
    <contour>
      <point x="251.0" y="526.0" type="move" name="top"/>
    </contour>
    <contour>
      <point x="262.0" y="0.0" type="move" name="ogonek"/>
    </contour>
    <contour>
      <point x="251.0" y="0.0" type="move" name="bottom"/>
    </contour>
  </outline>
</glyph>
<glyph name="r" format="1">
  <advance width="358"/>
  <unicode hex="0072"/>
  <outline>
    <contour>
      <point x="48" y="525" type="line"/>
      <point x="54" y="476" type="line" smooth="yes"/>
      <point x="58" y="447"/>
      <point x="60" y="429"/>
      <point x="60" y="401" type="curve" smooth="yes"/>
      <point x="60" y="0" type="line"/>
      <point x="197" y="0" type="line"/>
      <point x="197" y="440" type="line"/>
      <point x="182" y="525" type="line"/>
    </contour>
    <contour>
      <point x="185" y="336" type="line"/>
      <point x="231.0" y="376.32653061224494"/>
      <point x="277.0" y="388.962962962963"/>
      <point x="343" y="388" type="curve"/>
      <point x="343" y="537" type="line"/>
      <point x="284" y="537"/>
      <point x="220.0" y="499.9047619047619"/>
      <point x="185" y="438" type="curve"/>
    </contour>
    <contour>
      <point x="224.0" y="526.0" type="move" name="top"/>
    </contour>
    <contour>
      <point x="129.0" y="0.0" type="move" name="bottom"/>
    </contour>
  </outline>
</glyph>
<glyph name="u" format="1">
  <advance width="533"/>
  <unicode hex="0075"/>
  <outline>
    <contour>
      <point x="56" y="189" type="line"/>
      <point x="56" y="48"/>
      <point x="122" y="-12"/>
      <point x="209" y="-12" type="curve" smooth="yes"/>
      <point x="266" y="-12"/>
      <point x="314" y="19"/>
      <point x="348" y="63" type="curve"/>
      <point x="348" y="159" type="line"/>
      <point x="328" y="137"/>
      <point x="298" y="126"/>
      <point x="269" y="126" type="curve"/>
      <point x="217" y="126"/>
      <point x="193" y="152"/>
      <point x="193" y="223" type="curve" smooth="yes"/>
      <point x="193" y="525" type="line"/>
      <point x="56" y="525" type="line"/>
    </contour>
    <contour>
      <point x="351" y="0" type="line"/>
      <point x="485" y="0" type="line"/>
      <point x="479" y="49" type="line" smooth="yes"/>
      <point x="474" y="78"/>
      <point x="473" y="97"/>
      <point x="473" y="125" type="curve" smooth="yes"/>
      <point x="473" y="525" type="line"/>
      <point x="336" y="525" type="line"/>
      <point x="336" y="100" type="line"/>
    </contour>
    <contour>
      <point x="265.0" y="526.0" type="move" name="top"/>
    </contour>
    <contour>
      <point x="351.0" y="0.0" type="move" name="ogonek"/>
    </contour>
    <contour>
      <point x="265.0" y="0.0" type="move" name="bottom"/>
    </contour>
  </outline>
</glyph>
<glyph name="v" format="1">
  <advance width="452"/>
  <unicode hex="0076"/>
  <outline>
    <contour>
      <point x="-2" y="525" type="line"/>
      <point x="157" y="0" type="line"/>
      <point x="252" y="0" type="line"/>
      <point x="253" y="97" type="line"/>
      <point x="141" y="525" type="line"/>
    </contour>
    <contour>
      <point x="204" y="97" type="line"/>
      <point x="204" y="0" type="line"/>
      <point x="295" y="0" type="line"/>
      <point x="454" y="525" type="line"/>
      <point x="314" y="525" type="line"/>
    </contour>
  </outline>
</glyph>
<glyph name="w" format="1">
  <advance width="702"/>
  <unicode hex="0077"/>
  <outline>
    <contour>
      <point x="19" y="525" type="line"/>
      <point x="150" y="0" type="line"/>
      <point x="248" y="0" type="line"/>
      <point x="248" y="108" type="line"/>
      <point x="163" y="525" type="line"/>
    </contour>
    <contour>
      <point x="197" y="108" type="line"/>
      <point x="197" y="0" type="line"/>
      <point x="277" y="0" type="line"/>
      <point x="375" y="390" type="line"/>
      <point x="375" y="525" type="line"/>
      <point x="292" y="525" type="line"/>
    </contour>
    <contour>
      <point x="327" y="390" type="line"/>
      <point x="425" y="0" type="line"/>
      <point x="510" y="0" type="line"/>
      <point x="510" y="108" type="line"/>
      <point x="414" y="525" type="line"/>
      <point x="327" y="525" type="line"/>
    </contour>
    <contour>
      <point x="459" y="108" type="line"/>
      <point x="459" y="0" type="line"/>
      <point x="552" y="0" type="line"/>
      <point x="684" y="525" type="line"/>
      <point x="543" y="525" type="line"/>
    </contour>
    <contour>
      <point x="351.0" y="526.0" type="move" name="top"/>
    </contour>
  </outline>
</glyph>
<glyph name="bar" format="1">
  <advance width="266"/>
  <unicode hex="007C"/>
  <outline>
    <contour>
      <point x="69" y="-215" type="line"/>
      <point x="197" y="-215" type="line"/>
      <point x="197" y="720" type="line"/>
      <point x="69" y="720" type="line"/>
    </contour>
  </outline>
</glyph>
<glyph name="braceright" format="1">
  <advance width="308"/>
  <unicode hex="007D"/>
  <outline>
    <contour>
      <point x="10" y="-195" type="curve"/>
      <point x="34" y="-281" type="line"/>
      <point x="161" y="-257"/>
      <point x="223" y="-177"/>
      <point x="223" y="-81" type="curve" smooth="yes"/>
      <point x="223" y="8"/>
      <point x="158" y="57"/>
      <point x="158" y="132" type="curve"/>
      <point x="158" y="176"/>
      <point x="172" y="204"/>
      <point x="259" y="220" type="curve"/>
      <point x="259" y="317" type="line"/>
      <point x="172" y="333"/>
      <point x="158" y="360"/>
      <point x="158" y="405" type="curve"/>
      <point x="158" y="480"/>
      <point x="223" y="527"/>
      <point x="223" y="616" type="curve" smooth="yes"/>
      <point x="223" y="712"/>
      <point x="161" y="792"/>
      <point x="34" y="816" type="curve"/>
      <point x="10" y="730" type="line"/>
      <point x="77" y="701"/>
      <point x="95" y="662"/>
      <point x="95" y="617" type="curve" smooth="yes"/>
      <point x="95" y="543"/>
      <point x="44" y="493"/>
      <point x="44" y="400" type="curve"/>
      <point x="44" y="336"/>
      <point x="84" y="283"/>
      <point x="149" y="268" type="curve"/>
      <point x="84" y="253"/>
      <point x="44" y="202"/>
      <point x="44" y="138" type="curve"/>
      <point x="44" y="45"/>
      <point x="95" y="-8"/>
      <point x="95" y="-82" type="curve" smooth="yes"/>
      <point x="95" y="-127"/>
      <point x="77" y="-166"/>
    </contour>
  </outline>
</glyph>
<glyph name="asciitilde" format="1">
  <advance width="504"/>
  <unicode hex="007E"/>
  <outline>
    <contour>
      <point x="62" y="282" type="curve"/>
      <point x="145" y="282" type="line"/>
      <point x="154.0" y="333.50704225352115"/>
      <point x="168.0" y="351.0"/>
      <point x="186" y="351" type="curve" smooth="yes"/>
      <point x="224.0" y="351.0"/>
      <point x="261.95238095238096" y="279.0"/>
      <point x="331" y="279" type="curve" smooth="yes"/>
      <point x="390.0" y="279.0"/>
      <point x="441.0" y="342.6395939086294"/>
      <point x="441" y="478" type="curve"/>
      <point x="359" y="478" type="line"/>
      <point x="351.0" y="426.49295774647885"/>
      <point x="336.0" y="409.0"/>
      <point x="318" y="409" type="curve" smooth="yes"/>
      <point x="278.0" y="409.0"/>
      <point x="241.06849315068493" y="481.0"/>
      <point x="174" y="481" type="curve" smooth="yes"/>
      <point x="114.0" y="481.0"/>
      <point x="62.0" y="423.4213197969543"/>
    </contour>
  </outline>
</glyph>
<glyph name="exclamdown" format="1">
  <advance width="308"/>
  <unicode hex="00A1"/>
  <outline>
    <contour>
      <point x="78" y="-185" type="line"/>
      <point x="230" y="-185" type="line"/>
      <point x="230" y="0" type="line"/>
      <point x="206" y="261" type="line"/>
      <point x="102" y="261" type="line"/>
      <point x="78" y="0" type="line"/>
    </contour>
    <contour>
      <point x="65" y="449" type="curve" smooth="yes"/>
      <point x="65" y="400"/>
      <point x="105" y="359"/>
      <point x="154" y="359" type="curve" smooth="yes"/>
      <point x="203" y="359"/>
      <point x="243" y="400"/>
      <point x="243" y="449" type="curve" smooth="yes"/>
      <point x="243" y="497"/>
      <point x="203" y="538"/>
      <point x="154" y="538" type="curve" smooth="yes"/>
      <point x="105" y="538"/>
      <point x="65" y="497"/>
    </contour>
  </outline>
</glyph>
<glyph name="cent" format="1">
  <advance width="504"/>
  <unicode hex="00A2"/>
  <outline>
    <contour>
      <point x="223" y="-100" type="line"/>
      <point x="353" y="-100" type="line"/>
      <point x="353" y="60" type="line"/>
      <point x="223" y="60" type="line"/>
    </contour>
    <contour>
      <point x="223" y="500" type="line"/>
      <point x="353" y="500" type="line"/>
      <point x="353" y="695" type="line"/>
      <point x="223" y="695" type="line"/>
    </contour>
    <contour>
      <point x="67" y="293" type="curve" smooth="yes"/>
      <point x="67" y="130"/>
      <point x="162" y="24"/>
      <point x="298" y="24" type="curve"/>
      <point x="365" y="24"/>
      <point x="421" y="44"/>
      <point x="456" y="71" type="curve"/>
      <point x="401" y="178" type="line"/>
      <point x="380" y="165"/>
      <point x="354" y="155"/>
      <point x="318" y="155" type="curve" smooth="yes"/>
      <point x="254" y="155"/>
      <point x="207" y="207"/>
      <point x="207" y="302" type="curve" smooth="yes"/>
      <point x="207" y="395"/>
      <point x="254" y="442"/>
      <point x="313" y="442" type="curve" smooth="yes"/>
      <point x="337" y="442"/>
      <point x="362" y="433"/>
      <point x="380" y="420" type="curve"/>
      <point x="435" y="533" type="line"/>
      <point x="397" y="557"/>
      <point x="356" y="573"/>
      <point x="304" y="573" type="curve" smooth="yes"/>
      <point x="166" y="573"/>
      <point x="67" y="464"/>
    </contour>
  </outline>
</glyph>
<glyph name="sterling" format="1">
  <advance width="504"/>
  <unicode hex="00A3"/>
  <outline>
    <contour>
      <point x="42" y="0" type="line"/>
      <point x="463" y="0" type="line"/>
      <point x="463" y="123" type="line"/>
      <point x="42" y="123" type="line"/>
    </contour>
    <contour>
      <point x="42" y="30" type="line"/>
      <point x="152" y="60"/>
      <point x="248" y="160"/>
      <point x="248" y="281" type="curve" smooth="yes"/>
      <point x="248.0" y="353.1724137931035"/>
      <point x="220.0" y="385.0"/>
      <point x="220" y="463" type="curve" smooth="yes"/>
      <point x="220.0" y="523.0"/>
      <point x="251.5333333333333" y="567.0"/>
      <point x="306" y="567" type="curve" smooth="yes"/>
      <point x="348.7263157894737" y="567.0"/>
      <point x="380.958219997824" y="544.7777777777778"/>
      <point x="405" y="517" type="curve"/>
      <point x="479" y="627" type="line"/>
      <point x="437" y="672"/>
      <point x="359.25396825396825" y="702.0"/>
      <point x="295" y="702" type="curve" smooth="yes"/>
      <point x="176" y="702"/>
      <point x="87" y="619"/>
      <point x="87" y="485" type="curve"/>
      <point x="87" y="403"/>
      <point x="118" y="343"/>
      <point x="118" y="262" type="curve" smooth="yes"/>
      <point x="118" y="202"/>
      <point x="80" y="147"/>
      <point x="42" y="124" type="curve"/>
    </contour>
    <contour>
      <point x="42" y="265" type="line"/>
      <point x="380" y="265" type="line"/>
      <point x="380" y="379" type="line"/>
      <point x="42" y="379" type="line"/>
    </contour>
  </outline>
</glyph>
<glyph name="currency" format="1">
  <advance width="504"/>
  <unicode hex="00A4"/>
  <outline>
    <contour>
      <point x="39" y="345" type="curve" smooth="yes"/>
      <point x="39" y="222"/>
      <point x="134" y="126"/>
      <point x="254" y="126" type="curve" smooth="yes"/>
      <point x="373" y="126"/>
      <point x="468" y="222"/>
      <point x="468" y="345" type="curve" smooth="yes"/>
      <point x="468" y="466"/>
      <point x="373" y="561"/>
      <point x="254" y="561" type="curve" smooth="yes"/>
      <point x="134" y="561"/>
      <point x="39" y="466"/>
    </contour>
    <contour>
      <point x="164" y="345" type="curve" smooth="yes"/>
      <point x="164" y="401"/>
      <point x="202" y="443"/>
      <point x="254" y="443" type="curve" smooth="yes"/>
      <point x="307" y="443"/>
      <point x="341" y="401"/>
      <point x="341" y="345" type="curve" smooth="yes"/>
      <point x="341" y="286"/>
      <point x="307" y="243"/>
      <point x="254" y="243" type="curve" smooth="yes"/>
      <point x="202" y="243"/>
      <point x="164" y="286"/>
    </contour>
    <contour>
      <point x="8" y="184" type="line"/>
      <point x="97" y="83" type="line"/>
      <point x="168" y="152" type="line"/>
      <point x="79" y="253" type="line"/>
    </contour>
    <contour>
      <point x="336" y="152" type="line"/>
      <point x="407" y="83" type="line"/>
      <point x="496" y="184" type="line"/>
      <point x="425" y="253" type="line"/>
    </contour>
    <contour>
      <point x="8" y="506" type="line"/>
      <point x="79" y="437" type="line"/>
      <point x="168" y="538" type="line"/>
      <point x="97" y="607" type="line"/>
    </contour>
    <contour>
      <point x="336" y="538" type="line"/>
      <point x="425" y="437" type="line"/>
      <point x="496" y="506" type="line"/>
      <point x="407" y="607" type="line"/>
    </contour>
  </outline>
</glyph>
<glyph name="yen" format="1">
  <advance width="504"/>
  <unicode hex="00A5"/>
  <outline>
    <contour>
      <point x="66" y="123" type="line"/>
      <point x="438" y="123" type="line"/>
      <point x="438" y="220" type="line"/>
      <point x="66" y="220" type="line"/>
    </contour>
    <contour>
      <point x="66" y="281" type="line"/>
      <point x="438" y="281" type="line"/>
      <point x="438" y="378" type="line"/>
      <point x="66" y="378" type="line"/>
    </contour>
    <contour>
      <point x="-24" y="690" type="line"/>
      <point x="192" y="261" type="line"/>
      <point x="264" y="261" type="line"/>
      <point x="268" y="389" type="line"/>
      <point x="126" y="690" type="line"/>
    </contour>
    <contour>
      <point x="181" y="0" type="line"/>
      <point x="323" y="0" type="line"/>
      <point x="323" y="294" type="line"/>
      <point x="181" y="294" type="line"/>
    </contour>
    <contour>
      <point x="240" y="389" type="line"/>
      <point x="247" y="261" type="line"/>
      <point x="311" y="261" type="line"/>
      <point x="528" y="690" type="line"/>
      <point x="382" y="690" type="line"/>
    </contour>
  </outline>
</glyph>
<glyph name="brokenbar" format="1">
  <advance width="266"/>
  <unicode hex="00A6"/>
  <outline>
    <contour>
      <point x="69" y="-215" type="line"/>
      <point x="197" y="-215" type="line"/>
      <point x="197" y="150" type="line"/>
      <point x="69" y="150" type="line"/>
    </contour>
    <contour>
      <point x="69" y="355" type="line"/>
      <point x="197" y="355" type="line"/>
      <point x="197" y="720" type="line"/>
      <point x="69" y="720" type="line"/>
    </contour>
  </outline>
</glyph>
<glyph name="section" format="1">
  <advance width="521"/>
  <unicode hex="00A7"/>
  <outline>
    <contour>
      <point x="21" y="-125" type="line"/>
      <point x="70.54976303317537" y="-166.14285714285714"/>
      <point x="151.27093596059115" y="-197.0"/>
      <point x="226" y="-197" type="curve" smooth="yes"/>
      <point x="367.75652173913045" y="-197.0"/>
      <point x="454.0" y="-107.0"/>
      <point x="454" y="-7" type="curve" smooth="yes"/>
      <point x="454" y="90"/>
      <point x="379" y="146"/>
      <point x="261" y="192" type="curve" smooth="yes"/>
      <point x="170" y="227"/>
      <point x="157" y="255"/>
      <point x="157" y="284" type="curve"/>
      <point x="157" y="321"/>
      <point x="185" y="360"/>
      <point x="238" y="368" type="curve"/>
      <point x="152" y="439" type="line"/>
      <point x="85.0" y="409.1317365269461"/>
      <point x="30" y="347"/>
      <point x="30" y="267" type="curve" smooth="yes"/>
      <point x="30" y="178"/>
      <point x="87.0" y="117.73170731707317"/>
      <point x="222" y="67" type="curve" smooth="yes"/>
      <point x="297" y="38"/>
      <point x="311" y="18"/>
      <point x="311" y="-11" type="curve" smooth="yes"/>
      <point x="311.0" y="-43.068965517241374"/>
      <point x="283.55555555555554" y="-71.0"/>
      <point x="235" y="-71" type="curve" smooth="yes"/>
      <point x="180.43589743589746" y="-71.0"/>
      <point x="126.84615384615384" y="-46.0"/>
      <point x="83" y="-8" type="curve"/>
    </contour>
    <contour>
      <point x="67" y="512" type="curve" smooth="yes"/>
      <point x="67" y="414"/>
      <point x="142" y="361"/>
      <point x="260" y="313" type="curve" smooth="yes"/>
      <point x="349" y="277"/>
      <point x="364" y="250"/>
      <point x="364" y="217" type="curve"/>
      <point x="364" y="180"/>
      <point x="336" y="145"/>
      <point x="283" y="137" type="curve"/>
      <point x="368" y="66" type="line"/>
      <point x="427.0" y="88.67073170731707"/>
      <point x="491" y="161"/>
      <point x="491" y="241" type="curve"/>
      <point x="491" y="332"/>
      <point x="431.0" y="379.42512077294685"/>
      <point x="299" y="437" type="curve" smooth="yes"/>
      <point x="222.0" y="471.8607594936709"/>
      <point x="210.0" y="488.2658227848101"/>
      <point x="210" y="518" type="curve" smooth="yes"/>
      <point x="210.0" y="546.9655172413793"/>
      <point x="235.7910447761194" y="574.0"/>
      <point x="282" y="574" type="curve" smooth="yes"/>
      <point x="337.2298136645963" y="574.0"/>
      <point x="392.0" y="548.0588235294117"/>
      <point x="438" y="511" type="curve"/>
      <point x="500" y="630" type="line"/>
      <point x="449.0" y="671.1428571428571"/>
      <point x="366.0" y="702.0"/>
      <point x="288" y="702" type="curve" smooth="yes"/>
      <point x="141" y="702"/>
      <point x="67" y="611"/>
    </contour>
  </outline>
</glyph>
<glyph name="dieresis" format="1">
  <advance width="504"/>
  <unicode hex="00A8"/>
  <outline>
    <contour>
      <point x="162" y="604" type="curve" smooth="yes"/>
      <point x="201" y="604"/>
      <point x="232" y="637"/>
      <point x="232" y="676" type="curve" smooth="yes"/>
      <point x="232" y="714"/>
      <point x="201" y="746"/>
      <point x="162" y="746" type="curve" smooth="yes"/>
      <point x="123" y="746"/>
      <point x="91" y="714"/>
      <point x="91" y="676" type="curve" smooth="yes"/>
      <point x="91" y="637"/>
      <point x="123" y="604"/>
    </contour>
    <contour>
      <point x="343" y="604" type="curve" smooth="yes"/>
      <point x="382" y="604"/>
      <point x="413" y="637"/>
      <point x="413" y="676" type="curve" smooth="yes"/>
      <point x="413" y="714"/>
      <point x="382" y="746"/>
      <point x="343" y="746" type="curve" smooth="yes"/>
      <point x="304" y="746"/>
      <point x="272" y="714"/>
      <point x="272" y="676" type="curve" smooth="yes"/>
      <point x="272" y="637"/>
      <point x="304" y="604"/>
    </contour>
    <contour>
      <point x="252.0" y="526.0" type="move" name="_top"/>
    </contour>
  </outline>
</glyph>
<glyph name="guillemetleft" format="1">
  <advance width="467"/>
  <unicode hex="00AB"/>
  <outline>
    <contour>
      <point x="23" y="240" type="line"/>
      <point x="100" y="88" type="line"/>
      <point x="244" y="88" type="line"/>
      <point x="135" y="296" type="line"/>
      <point x="23" y="310" type="line"/>
    </contour>
    <contour>
      <point x="23" y="242" type="line"/>
      <point x="135" y="253" type="line"/>
      <point x="244" y="463" type="line"/>
      <point x="100" y="463" type="line"/>
      <point x="23" y="312" type="line"/>
    </contour>
    <contour>
      <point x="236" y="240" type="line"/>
      <point x="313" y="88" type="line"/>
      <point x="457" y="88" type="line"/>
      <point x="348" y="298" type="line"/>
      <point x="236" y="310" type="line"/>
    </contour>
    <contour>
      <point x="236" y="242" type="line"/>
      <point x="348" y="253" type="line"/>
      <point x="457" y="463" type="line"/>
      <point x="313" y="463" type="line"/>
      <point x="236" y="312" type="line"/>
    </contour>
  </outline>
</glyph>
<glyph name="registered" format="1">
  <advance width="810"/>
  <unicode hex="00AE"/>
  <outline>
    <contour>
      <point x="405" y="-10" type="curve" smooth="yes"/>
      <point x="605" y="-10"/>
      <point x="760" y="145"/>
      <point x="760" y="345" type="curve" smooth="yes"/>
      <point x="760" y="545"/>
      <point x="605" y="700"/>
      <point x="405" y="700" type="curve" smooth="yes"/>
      <point x="205" y="700"/>
      <point x="50" y="545"/>
      <point x="50" y="345" type="curve" smooth="yes"/>
      <point x="50" y="145"/>
      <point x="205" y="-10"/>
    </contour>
    <contour>
      <point x="405" y="60" type="curve" smooth="yes"/>
      <point x="245" y="60"/>
      <point x="122" y="185"/>
      <point x="122" y="345" type="curve" smooth="yes"/>
      <point x="122" y="505"/>
      <point x="245" y="630"/>
      <point x="405" y="630" type="curve" smooth="yes"/>
      <point x="565" y="630"/>
      <point x="688" y="505"/>
      <point x="688" y="345" type="curve" smooth="yes"/>
      <point x="688" y="185"/>
      <point x="565" y="60"/>
    </contour>
    <contour>
      <point x="248" y="138" type="line"/>
      <point x="358" y="138" type="line"/>
      <point x="358" y="552" type="line"/>
      <point x="248" y="552" type="line"/>
    </contour>
    <contour>
      <point x="300" y="274" type="line"/>
      <point x="409" y="274" type="line" smooth="yes"/>
      <point x="495" y="274"/>
      <point x="565" y="322"/>
      <point x="565" y="413" type="curve" smooth="yes"/>
      <point x="565" y="502"/>
      <point x="495" y="552"/>
      <point x="409" y="552" type="curve" smooth="yes"/>
      <point x="300" y="552" type="line"/>
      <point x="300" y="462" type="line"/>
      <point x="400" y="462" type="line" smooth="yes"/>
      <point x="433" y="462"/>
      <point x="455" y="445"/>
      <point x="455" y="413" type="curve" smooth="yes"/>
      <point x="455" y="380"/>
      <point x="432" y="362"/>
      <point x="400" y="362" type="curve" smooth="yes"/>
      <point x="300" y="362" type="line"/>
    </contour>
    <contour>
      <point x="376" y="312" type="line"/>
      <point x="456" y="138" type="line"/>
      <point x="578" y="138" type="line"/>
      <point x="482" y="312" type="line"/>
    </contour>
  </outline>
</glyph>
<glyph name="macron" format="1">
  <advance width="504"/>
  <unicode hex="00AF"/>
  <outline>
    <contour>
      <point x="105" y="624" type="line"/>
      <point x="399" y="624" type="line"/>
      <point x="399" y="735" type="line"/>
      <point x="105" y="735" type="line"/>
    </contour>
    <contour>
      <point x="252.0" y="526.0" type="move" name="_top"/>
    </contour>
  </outline>
</glyph>
<glyph name="degree" format="1">
  <advance width="343"/>
  <unicode hex="00B0"/>
  <outline>
    <contour>
      <point x="8" y="537" type="curve" smooth="yes"/>
      <point x="8" y="443"/>
      <point x="80" y="370"/>
      <point x="172" y="370" type="curve" smooth="yes"/>
      <point x="263" y="370"/>
      <point x="336" y="443"/>
      <point x="336" y="537" type="curve" smooth="yes"/>
      <point x="336" y="629"/>
      <point x="263" y="702"/>
      <point x="172" y="702" type="curve" smooth="yes"/>
      <point x="80" y="702"/>
      <point x="8" y="629"/>
    </contour>
    <contour>
      <point x="112" y="537" type="curve" smooth="yes"/>
      <point x="112" y="574"/>
      <point x="137" y="601"/>
      <point x="172" y="601" type="curve" smooth="yes"/>
      <point x="207" y="601"/>
      <point x="230" y="574"/>
      <point x="230" y="537" type="curve" smooth="yes"/>
      <point x="230" y="498"/>
      <point x="207" y="470"/>
      <point x="172" y="470" type="curve" smooth="yes"/>
      <point x="137" y="470"/>
      <point x="112" y="498"/>
    </contour>
  </outline>
</glyph>
<glyph name="plusminus" format="1">
  <advance width="504"/>
  <unicode hex="00B1"/>
  <outline>
    <contour>
      <point x="188" y="54" type="line"/>
      <point x="316" y="54" type="line"/>
      <point x="316" y="523" type="line"/>
      <point x="188" y="523" type="line"/>
    </contour>
    <contour>
      <point x="45" y="274" type="line"/>
      <point x="460" y="274" type="line"/>
      <point x="460" y="406" type="line"/>
      <point x="45" y="406" type="line"/>
    </contour>
    <contour>
      <point x="45" y="54" type="line"/>
      <point x="460" y="54" type="line"/>
      <point x="460" y="186" type="line"/>
      <point x="45" y="186" type="line"/>
    </contour>
  </outline>
</glyph>
<glyph name="acute" format="1">
  <advance width="504"/>
  <unicode hex="00B4"/>
  <outline>
    <contour>
      <point x="193" y="601" type="line"/>
      <point x="270" y="751" type="line"/>
      <point x="420" y="751" type="line"/>
      <point x="308" y="601" type="line"/>
    </contour>
    <contour>
      <point x="252.0" y="526.0" type="move" name="_top"/>
    </contour>
  </outline>
</glyph>
<glyph name="cedilla" format="1">
  <advance width="504"/>
  <unicode hex="00B8"/>
  <outline>
    <contour>
      <point x="182" y="-227" type="line"/>
      <point x="204" y="-227" type="line" smooth="yes"/>
      <point x="303" y="-227"/>
      <point x="349" y="-184"/>
      <point x="349" y="-126" type="curve" smooth="yes"/>
      <point x="349" y="-89"/>
      <point x="328" y="-59"/>
      <point x="280" y="-49" type="curve"/>
      <point x="289" y="9" type="line"/>
      <point x="219" y="15" type="line"/>
      <point x="199" y="-96" type="line"/>
      <point x="214" y="-98" type="line"/>
      <point x="238.0" y="-101.75"/>
      <point x="250.0" y="-112.0625"/>
      <point x="250" y="-128" type="curve" smooth="yes"/>
      <point x="250.0" y="-147.83333333333334"/>
      <point x="234.0" y="-162.0"/>
      <point x="195" y="-162" type="curve"/>
    </contour>
    <contour>
      <point x="252.0" y="0.0" type="move" name="_bottom"/>
    </contour>
  </outline>
</glyph>
<glyph name="ordmasculine" format="1">
  <advance width="403"/>
  <unicode hex="00BA"/>
  <outline>
    <contour>
      <point x="30" y="490" type="curve" smooth="yes"/>
      <point x="30" y="351"/>
      <point x="101" y="279"/>
      <point x="202" y="279" type="curve" smooth="yes"/>
      <point x="302" y="279"/>
      <point x="373" y="351"/>
      <point x="373" y="490" type="curve" smooth="yes"/>
      <point x="373" y="631"/>
      <point x="302" y="703"/>
      <point x="202" y="703" type="curve" smooth="yes"/>
      <point x="101" y="703"/>
      <point x="30" y="631"/>
    </contour>
    <contour>
      <point x="138" y="490" type="curve" smooth="yes"/>
      <point x="138" y="576"/>
      <point x="163" y="600"/>
      <point x="202" y="600" type="curve" smooth="yes"/>
      <point x="240" y="600"/>
      <point x="265" y="576"/>
      <point x="265" y="490" type="curve" smooth="yes"/>
      <point x="265" y="406"/>
      <point x="240" y="382"/>
      <point x="202" y="382" type="curve" smooth="yes"/>
      <point x="163" y="382"/>
      <point x="138" y="406"/>
    </contour>
  </outline>
</glyph>
<glyph name="AE" format="1">
  <advance width="821"/>
  <unicode hex="00C6"/>
  <outline>
    <contour>
      <point x="-1" y="0" type="line"/>
      <point x="150" y="0" type="line"/>
      <point x="334" y="594" type="line"/>
      <point x="303" y="690" type="line"/>
      <point x="223" y="690" type="line"/>
    </contour>
    <contour>
      <point x="144" y="145" type="line"/>
      <point x="414" y="145" type="line"/>
      <point x="414" y="266" type="line"/>
      <point x="144" y="266" type="line"/>
    </contour>
    <contour>
      <point x="355" y="0" type="line"/>
      <point x="497" y="0" type="line"/>
      <point x="497" y="690" type="line"/>
      <point x="355" y="690" type="line"/>
    </contour>
    <contour>
      <point x="420" y="0" type="line"/>
      <point x="771" y="0" type="line"/>
      <point x="771" y="132" type="line"/>
      <point x="420" y="132" type="line"/>
    </contour>
    <contour>
      <point x="420" y="286" type="line"/>
      <point x="728" y="286" type="line"/>
      <point x="728" y="411" type="line"/>
      <point x="420" y="411" type="line"/>
    </contour>
    <contour>
      <point x="278" y="558" type="line"/>
      <point x="767" y="558" type="line"/>
      <point x="767" y="690" type="line"/>
      <point x="278" y="690" type="line"/>
    </contour>
    <contour>
      <point x="492.0" y="690.0" type="move" name="top"/>
    </contour>
  </outline>
</glyph>
<glyph name="multiply" format="1">
  <advance width="504"/>
  <unicode hex="00D7"/>
  <outline>
    <contour>
      <point x="39" y="436" type="line"/>
      <point x="369" y="51" type="line"/>
      <point x="465" y="144" type="line"/>
      <point x="135" y="529" type="line"/>
    </contour>
    <contour>
      <point x="39" y="144" type="line"/>
      <point x="135" y="51" type="line"/>
      <point x="465" y="436" type="line"/>
      <point x="369" y="529" type="line"/>
    </contour>
  </outline>
</glyph>
<glyph name="ae" format="1">
  <advance width="722"/>
  <unicode hex="00E6"/>
  <outline>
    <contour>
      <point x="21" y="145" type="curve" smooth="yes"/>
      <point x="21.0" y="50.384105960264904"/>
      <point x="84.11805555555556" y="-12.0"/>
      <point x="170" y="-12" type="curve" smooth="yes"/>
      <point x="256.5945945945946" y="-12.0"/>
      <point x="305.2432432432432" y="28.090909090909086"/>
      <point x="350" y="78" type="curve"/>
      <point x="295" y="144" type="line"/>
      <point x="271.735632183908" y="120.0"/>
      <point x="237.1443298969072" y="105.0"/>
      <point x="203" y="105" type="curve" smooth="yes"/>
      <point x="170.25531914893617" y="105.0"/>
      <point x="146.0" y="122.29411764705883"/>
      <point x="146" y="154" type="curve" smooth="yes"/>
      <point x="146.0" y="187.0"/>
      <point x="172.0" y="217.1304347826087"/>
      <point x="239" y="220" type="curve" smooth="yes"/>
      <point x="310" y="224" type="line"/>
      <point x="310" y="318" type="line"/>
      <point x="229" y="315" type="line" smooth="yes"/>
      <point x="91.35294117647058" y="309.1379310344828"/>
      <point x="21.0" y="239.65909090909088"/>
    </contour>
    <contour>
      <point x="49" y="500" type="curve"/>
      <point x="85" y="384" type="line"/>
      <point x="114.0" y="399.00000000000006"/>
      <point x="153.0" y="415.0"/>
      <point x="196" y="415" type="curve" smooth="yes"/>
      <point x="253.0" y="415.0"/>
      <point x="279.0" y="379.43333333333334"/>
      <point x="279" y="318" type="curve" smooth="yes"/>
      <point x="279" y="282" type="line"/>
      <point x="405" y="282" type="line"/>
      <point x="405" y="326" type="line" smooth="yes"/>
      <point x="405" y="464"/>
      <point x="336" y="538"/>
      <point x="218" y="538" type="curve" smooth="yes"/>
      <point x="150.0223463687151" y="538.0"/>
      <point x="90.54189944134077" y="519.4418604651163"/>
    </contour>
    <contour>
      <point x="279" y="252" type="curve" smooth="yes"/>
      <point x="279" y="96"/>
      <point x="352" y="-12"/>
      <point x="512" y="-12" type="curve" smooth="yes"/>
      <point x="575.6315789473683" y="-12.0"/>
      <point x="625.921052631579" y="8.948717948717949"/>
      <point x="668" y="31" type="curve"/>
      <point x="623" y="140" type="line"/>
      <point x="596.0" y="123.0"/>
      <point x="559" y="112"/>
      <point x="529" y="112" type="curve" smooth="yes"/>
      <point x="444" y="112"/>
      <point x="403" y="159"/>
      <point x="403" y="263" type="curve" smooth="yes"/>
      <point x="403" y="377"/>
      <point x="441.0" y="422.0"/>
      <point x="490" y="422" type="curve" smooth="yes"/>
      <point x="538.0" y="422.0"/>
      <point x="563.0" y="379.0666666666666"/>
      <point x="563" y="282" type="curve"/>
      <point x="591" y="314" type="line"/>
      <point x="368" y="314" type="line"/>
      <point x="368" y="217" type="line"/>
      <point x="684" y="217" type="line"/>
      <point x="686.0" y="229.0"/>
      <point x="689.0" y="251.0"/>
      <point x="689" y="275" type="curve" smooth="yes"/>
      <point x="689.0" y="437.0"/>
      <point x="614.8905472636816" y="538.0"/>
      <point x="493" y="538" type="curve" smooth="yes"/>
      <point x="359" y="538"/>
      <point x="279" y="423"/>
    </contour>
    <contour>
      <point x="362.0" y="515.0" type="move" name="top"/>
    </contour>
  </outline>
</glyph>
<glyph name="divide" format="1">
  <advance width="504"/>
  <unicode hex="00F7"/>
  <outline>
    <contour>
      <point x="45" y="224" type="line"/>
      <point x="460" y="224" type="line"/>
      <point x="460" y="356" type="line"/>
      <point x="45" y="356" type="line"/>
    </contour>
    <contour>
      <point x="163" y="86" type="curve" smooth="yes"/>
      <point x="163" y="37"/>
      <point x="203" y="-4"/>
      <point x="252" y="-4" type="curve" smooth="yes"/>
      <point x="301" y="-4"/>
      <point x="341" y="37"/>
      <point x="341" y="86" type="curve" smooth="yes"/>
      <point x="341" y="134"/>
      <point x="301" y="175"/>
      <point x="252" y="175" type="curve" smooth="yes"/>
      <point x="203" y="175"/>
      <point x="163" y="134"/>
    </contour>
    <contour>
      <point x="163" y="495" type="curve" smooth="yes"/>
      <point x="163" y="446"/>
      <point x="203" y="405"/>
      <point x="252" y="405" type="curve" smooth="yes"/>
      <point x="301" y="405"/>
      <point x="341" y="446"/>
      <point x="341" y="495" type="curve" smooth="yes"/>
      <point x="341" y="543"/>
      <point x="301" y="584"/>
      <point x="252" y="584" type="curve" smooth="yes"/>
      <point x="203" y="584"/>
      <point x="163" y="543"/>
    </contour>
  </outline>
</glyph>
<glyph name="hbar" format="1">
  <advance width="542"/>
  <unicode hex="0127"/>
  <outline>
    <contour>
      <point x="64" y="0" type="line"/>
      <point x="201" y="0" type="line"/>
      <point x="201" y="735" type="line"/>
      <point x="64" y="715" type="line"/>
    </contour>
    <contour>
      <point x="189" y="323" type="line"/>
      <point x="212" y="356"/>
      <point x="248" y="373"/>
      <point x="279" y="373" type="curve" smooth="yes"/>
      <point x="320" y="373"/>
      <point x="349" y="344"/>
      <point x="349" y="281" type="curve" smooth="yes"/>
      <point x="349" y="0" type="line"/>
      <point x="486" y="0" type="line"/>
      <point x="486" y="305" type="line" smooth="yes"/>
      <point x="486" y="446"/>
      <point x="407" y="516"/>
      <point x="331" y="516" type="curve" smooth="yes"/>
      <point x="270" y="516"/>
      <point x="223" y="477"/>
      <point x="189" y="421" type="curve"/>
    </contour>
    <contour>
      <point x="17" y="563" type="line"/>
      <point x="296" y="563" type="line"/>
      <point x="296" y="672" type="line"/>
      <point x="17" y="672" type="line"/>
    </contour>
  </outline>
</glyph>
<glyph name="kra" format="1">
  <advance width="491"/>
  <unicode hex="0138"/>
  <outline>
    <contour>
      <point x="60" y="0" type="line"/>
      <point x="197" y="0" type="line"/>
      <point x="197" y="526" type="line"/>
      <point x="60" y="526" type="line"/>
    </contour>
    <contour>
      <point x="141" y="95" type="line"/>
      <point x="483" y="526" type="line"/>
      <point x="314" y="526" type="line"/>
      <point x="141" y="272" type="line"/>
    </contour>
    <contour>
      <point x="206" y="270" type="line"/>
      <point x="339" y="0" type="line"/>
      <point x="494" y="0" type="line"/>
      <point x="291" y="365" type="line"/>
    </contour>
  </outline>
</glyph>
<glyph name="lslash" format="1">
  <advance width="260"/>
  <unicode hex="0142"/>
  <outline>
    <contour>
      <point x="76" y="-22" type="line"/>
      <point x="183" y="-36" type="line"/>
      <point x="183" y="764" type="line"/>
      <point x="76" y="756" type="line"/>
    </contour>
    <contour>
      <point x="0" y="187" type="line"/>
      <point x="265" y="352" type="line"/>
      <point x="265" y="433" type="line"/>
      <point x="0" y="270" type="line"/>
    </contour>
  </outline>
</glyph>
<glyph name="Uogonek" format="1">
  <advance width="610"/>
  <unicode hex="0172"/>
  <outline>
    <contour>
      <point x="456" y="-172" type="curve"/>
      <point x="427" y="-104" type="line"/>
      <point x="416" y="-110"/>
      <point x="407" y="-115"/>
      <point x="395" y="-115" type="curve" smooth="yes"/>
      <point x="377" y="-115"/>
      <point x="369" y="-102"/>
      <point x="369" y="-87" type="curve" smooth="yes"/>
      <point x="369" y="-59"/>
      <point x="395" y="-10"/>
      <point x="446" y="26" type="curve" smooth="yes"/>
      <point x="512" y="72"/>
      <point x="549" y="148"/>
      <point x="549" y="271" type="curve" smooth="yes"/>
      <point x="549" y="690" type="line"/>
      <point x="411" y="690" type="line"/>
      <point x="411" y="290" type="line" smooth="yes"/>
      <point x="411" y="165"/>
      <point x="376" y="123"/>
      <point x="307" y="123" type="curve" smooth="yes"/>
      <point x="238" y="123"/>
      <point x="203" y="165"/>
      <point x="203" y="290" type="curve" smooth="yes"/>
      <point x="203" y="690" type="line"/>
      <point x="61" y="690" type="line"/>
      <point x="61" y="271" type="line" smooth="yes"/>
      <point x="61" y="75"/>
      <point x="158" y="-12"/>
      <point x="305" y="-12" type="curve" smooth="yes"/>
      <point x="312" y="-12"/>
      <point x="319" y="-12"/>
      <point x="326" y="-11" type="curve"/>
      <point x="303" y="-34"/>
      <point x="287" y="-65"/>
      <point x="287" y="-105" type="curve" smooth="yes"/>
      <point x="287" y="-159"/>
      <point x="320" y="-197"/>
      <point x="380" y="-197" type="curve" smooth="yes"/>
      <point x="409" y="-197"/>
      <point x="435" y="-186"/>
    </contour>
  </outline>
</glyph>
<glyph name="circumflex" format="1">
  <advance width="500"/>
  <unicode hex="02C6"/>
  <outline>
    <contour>
      <point x="96.0" y="601" type="line"/>
      <point x="186.0" y="751" type="line"/>
      <point x="313.0" y="751" type="line"/>
      <point x="206.0" y="601" type="line"/>
    </contour>
    <contour>
      <point x="187.0" y="751" type="line"/>
      <point x="313.0" y="751" type="line"/>
      <point x="404.0" y="601" type="line"/>
      <point x="294.0" y="601" type="line"/>
    </contour>
    <contour>
      <point x="250.0" y="526.0" type="move" name="_top"/>
    </contour>
  </outline>
</glyph>
<glyph name="caron" format="1">
  <advance width="504"/>
  <unicode hex="02C7"/>
  <outline>
    <contour>
      <point x="98" y="751" type="line"/>
      <point x="208" y="751" type="line"/>
      <point x="315" y="601" type="line"/>
      <point x="188" y="601" type="line"/>
    </contour>
    <contour>
      <point x="189" y="601" type="line"/>
      <point x="296" y="751" type="line"/>
      <point x="406" y="751" type="line"/>
      <point x="315" y="601" type="line"/>
    </contour>
    <contour>
      <point x="252.0" y="526.0" type="move" name="_top"/>
    </contour>
  </outline>
</glyph>
<glyph name="macronmod" format="1">
  <advance width="0"/>
  <unicode hex="02C9"/>
  <outline>
    <component base="macron" xOffset="-250"/>
    <contour>
      <point x="0" y="526" type="move" name="_top"/>
    </contour>
  </outline>
</glyph>
<glyph name="breve" format="1">
  <advance width="504"/>
  <unicode hex="02D8"/>
  <outline>
    <contour>
      <point x="124" y="751" type="line"/>
      <point x="124.0" y="655.0745341614906"/>
      <point x="173" y="595"/>
      <point x="252" y="595" type="curve" smooth="yes"/>
      <point x="331" y="595"/>
      <point x="380.0" y="654.1055900621118"/>
      <point x="380" y="751" type="curve"/>
      <point x="301" y="751" type="line"/>
      <point x="297.3703703703704" y="712.0"/>
      <point x="280.1296296296296" y="687.0"/>
      <point x="252" y="687" type="curve" smooth="yes"/>
      <point x="223.87037037037038" y="687.0"/>
      <point x="206.62962962962962" y="712.0"/>
      <point x="203" y="751" type="curve"/>
    </contour>
    <contour>
      <point x="252.0" y="526.0" type="move" name="_top"/>
    </contour>
  </outline>
</glyph>
<glyph name="dotaccent" format="1">
  <advance width="500"/>
  <unicode hex="02D9"/>
  <outline>
    <contour>
      <point x="176" y="673" type="curve" smooth="yes"/>
      <point x="176" y="633"/>
      <point x="209.0" y="599"/>
      <point x="249.0" y="599" type="curve" smooth="yes"/>
      <point x="289.0" y="599"/>
      <point x="322.0" y="633"/>
      <point x="322.0" y="673" type="curve" smooth="yes"/>
      <point x="322.0" y="712"/>
      <point x="289.0" y="746"/>
      <point x="249.0" y="746" type="curve" smooth="yes"/>
      <point x="209.0" y="746"/>
      <point x="176" y="712"/>
    </contour>
    <contour>
      <point x="250.0" y="526.0" type="move" name="_top"/>
    </contour>
  </outline>
</glyph>
<glyph name="ring" format="1">
  <advance width="504"/>
  <unicode hex="02DA"/>
  <outline>
    <contour>
      <point x="143" y="712" type="curve" smooth="yes"/>
      <point x="143" y="650"/>
      <point x="191" y="601"/>
      <point x="252" y="601" type="curve" smooth="yes"/>
      <point x="313" y="601"/>
      <point x="362" y="650"/>
      <point x="362" y="712" type="curve" smooth="yes"/>
      <point x="362" y="774"/>
      <point x="313" y="822"/>
      <point x="252" y="822" type="curve" smooth="yes"/>
      <point x="191" y="822"/>
      <point x="143" y="774"/>
    </contour>
    <contour>
      <point x="214" y="712" type="curve" smooth="yes"/>
      <point x="214" y="737"/>
      <point x="229" y="754"/>
      <point x="252" y="754" type="curve" smooth="yes"/>
      <point x="276" y="754"/>
      <point x="290" y="737"/>
      <point x="290" y="712" type="curve" smooth="yes"/>
      <point x="290" y="686"/>
      <point x="276" y="669"/>
      <point x="252" y="669" type="curve" smooth="yes"/>
      <point x="229" y="669"/>
      <point x="214" y="686"/>
    </contour>
    <contour>
      <point x="252.0" y="526.0" type="move" name="_top"/>
    </contour>
  </outline>
</glyph>
<glyph name="ogonek" format="1">
  <advance width="504"/>
  <unicode hex="02DB"/>
  <outline>
    <contour>
      <point x="200" y="-105" type="curve" smooth="yes"/>
      <point x="200" y="-159"/>
      <point x="233.06666666666666" y="-197.0"/>
      <point x="293" y="-197" type="curve" smooth="yes"/>
      <point x="321.8607594936709" y="-197.0"/>
      <point x="348.27272727272725" y="-185.88888888888889"/>
      <point x="369" y="-172" type="curve"/>
      <point x="340" y="-104" type="line"/>
      <point x="329.0" y="-109.92307692307692"/>
      <point x="320" y="-115"/>
      <point x="308" y="-115" type="curve" smooth="yes"/>
      <point x="290" y="-115"/>
      <point x="282.0" y="-102.0"/>
      <point x="282" y="-87" type="curve" smooth="yes"/>
      <point x="282" y="-59"/>
      <point x="306" y="-29"/>
      <point x="360" y="0" type="curve"/>
      <point x="252" y="0" type="line"/>
      <point x="222" y="-23"/>
      <point x="200" y="-58"/>
    </contour>
    <contour>
      <point x="252.0" y="0.0" type="move" name="_ogonek"/>
    </contour>
  </outline>
</glyph>
<glyph name="tilde" format="1">
  <advance width="504"/>
  <unicode hex="02DC"/>
  <outline>
    <contour>
      <point x="119" y="605" type="curve"/>
      <point x="185" y="605" type="line"/>
      <point x="188.6" y="635.0"/>
      <point x="200.6" y="644.0"/>
      <point x="215" y="644" type="curve" smooth="yes"/>
      <point x="237.66666666666666" y="644.0"/>
      <point x="260" y="600"/>
      <point x="305" y="600" type="curve"/>
      <point x="360" y="600"/>
      <point x="385" y="652"/>
      <point x="385" y="742" type="curve"/>
      <point x="319" y="742" type="line"/>
      <point x="315.4" y="712.0"/>
      <point x="303.4" y="703.0"/>
      <point x="289" y="703" type="curve" smooth="yes"/>
      <point x="266.3333333333333" y="703.0"/>
      <point x="244" y="747"/>
      <point x="199" y="747" type="curve"/>
      <point x="144" y="747"/>
      <point x="119" y="694"/>
    </contour>
    <contour>
      <point x="252.0" y="526.0" type="move" name="_top"/>
    </contour>
  </outline>
</glyph>
<glyph name="hungarumlaut" format="1">
  <advance width="504"/>
  <unicode hex="02DD"/>
  <outline>
    <contour>
      <point x="119" y="601" type="line"/>
      <point x="165" y="751" type="line"/>
      <point x="289" y="751" type="line"/>
      <point x="209" y="601" type="line"/>
    </contour>
    <contour>
      <point x="271" y="601" type="line"/>
      <point x="326" y="751" type="line"/>
      <point x="451" y="751" type="line"/>
      <point x="362" y="601" type="line"/>
    </contour>
    <contour>
      <point x="252.0" y="526.0" type="move" name="_top"/>
    </contour>
  </outline>
</glyph>
<glyph name="Delta" format="1">
  <advance width="553"/>
  <unicode hex="0394"/>
  <outline>
    <contour>
      <point x="1" y="0" type="line"/>
      <point x="145" y="0" type="line"/>
      <point x="289" y="557" type="line"/>
      <point x="283" y="690" type="line"/>
      <point x="206" y="690" type="line"/>
    </contour>
    <contour>
      <point x="95" y="0" type="line"/>
      <point x="459" y="0" type="line"/>
      <point x="459" y="127" type="line"/>
      <point x="95" y="127" type="line"/>
    </contour>
    <contour>
      <point x="261" y="557" type="line"/>
      <point x="405" y="0" type="line"/>
      <point x="553" y="0" type="line"/>
      <point x="348" y="690" type="line"/>
      <point x="264" y="690" type="line"/>
    </contour>
  </outline>
</glyph>
<glyph name="endash" format="1">
  <advance width="538"/>
  <unicode hex="2013"/>
  <outline>
    <contour>
      <point x="45" y="218" type="line"/>
      <point x="493" y="218" type="line"/>
      <point x="493" y="343" type="line"/>
      <point x="45" y="343" type="line"/>
    </contour>
  </outline>
</glyph>
<glyph name="emdash" format="1">
  <advance width="796"/>
  <unicode hex="2014"/>
  <outline>
    <contour>
      <point x="45" y="218" type="line"/>
      <point x="750" y="218" type="line"/>
      <point x="750" y="343" type="line"/>
      <point x="45" y="343" type="line"/>
    </contour>
  </outline>
</glyph>
<glyph name="quoteleft" format="1">
  <advance width="244"/>
  <unicode hex="2018"/>
  <outline>
    <contour>
      <point x="193" y="720" type="line"/>
      <point x="113" y="720" type="line"/>
      <point x="67" y="582" type="line" smooth="yes"/>
      <point x="48" y="526"/>
      <point x="33" y="490"/>
      <point x="33" y="454" type="curve" smooth="yes"/>
      <point x="33" y="400"/>
      <point x="73" y="364"/>
      <point x="123" y="364" type="curve" smooth="yes"/>
      <point x="171" y="364"/>
      <point x="211" y="405"/>
      <point x="211" y="453" type="curve" smooth="yes"/>
      <point x="211" y="492"/>
      <point x="183" y="526"/>
      <point x="152" y="538" type="curve"/>
    </contour>
  </outline>
</glyph>
<glyph name="daggerdbl" format="1">
  <advance width="410"/>
  <unicode hex="2021"/>
  <outline>
    <contour>
      <point x="141" y="-185" type="line"/>
      <point x="270" y="-185" type="line"/>
      <point x="270" y="720" type="line"/>
      <point x="141" y="720" type="line"/>
    </contour>
    <contour>
      <point x="25" y="401" type="line"/>
      <point x="385" y="401" type="line"/>
      <point x="385" y="526" type="line"/>
      <point x="25" y="526" type="line"/>
    </contour>
    <contour>
      <point x="25" y="9" type="line"/>
      <point x="385" y="9" type="line"/>
      <point x="385" y="134" type="line"/>
      <point x="25" y="134" type="line"/>
    </contour>
  </outline>
</glyph>
<glyph name="bullet" format="1">
  <advance width="336"/>
  <unicode hex="2022"/>
  <outline>
    <contour>
      <point x="60" y="303" type="curve" smooth="yes"/>
      <point x="60" y="243"/>
      <point x="108" y="193"/>
      <point x="168" y="193" type="curve" smooth="yes"/>
      <point x="227" y="193"/>
      <point x="276" y="243"/>
      <point x="276" y="303" type="curve" smooth="yes"/>
      <point x="276" y="361"/>
      <point x="227" y="410"/>
      <point x="168" y="410" type="curve" smooth="yes"/>
      <point x="108" y="410"/>
      <point x="60" y="361"/>
    </contour>
  </outline>
</glyph>
<glyph name="guilsinglleft" format="1">
  <advance width="267"/>
  <unicode hex="2039"/>
  <outline>
    <contour>
      <point x="27" y="240" type="line"/>
      <point x="105" y="88" type="line"/>
      <point x="249" y="88" type="line"/>
      <point x="140" y="298" type="line"/>
      <point x="27" y="310" type="line"/>
    </contour>
    <contour>
      <point x="27" y="242" type="line"/>
      <point x="140" y="253" type="line"/>
      <point x="249" y="463" type="line"/>
      <point x="105" y="463" type="line"/>
      <point x="27" y="312" type="line"/>
    </contour>
  </outline>
</glyph>
<glyph name="Euro" format="1">
  <advance width="504"/>
  <unicode hex="20AC"/>
  <outline>
    <contour>
      <point x="65" y="347" type="curve" smooth="yes"/>
      <point x="65" y="104"/>
      <point x="185" y="-12"/>
      <point x="327" y="-12" type="curve" smooth="yes"/>
      <point x="410" y="-12"/>
      <point x="470" y="19"/>
      <point x="523" y="69" type="curve"/>
      <point x="447" y="173" type="line"/>
      <point x="417" y="144"/>
      <point x="383" y="126"/>
      <point x="346" y="126" type="curve" smooth="yes"/>
      <point x="261" y="126"/>
      <point x="210" y="204"/>
      <point x="210" y="340" type="curve" smooth="yes"/>
      <point x="210" y="486"/>
      <point x="258" y="566"/>
      <point x="338" y="566" type="curve" smooth="yes"/>
      <point x="378" y="566"/>
      <point x="412" y="549"/>
      <point x="444" y="523" type="curve"/>
      <point x="519" y="635" type="line"/>
      <point x="461" y="679"/>
      <point x="405" y="702"/>
      <point x="333" y="702" type="curve" smooth="yes"/>
      <point x="172" y="702"/>
      <point x="65" y="560"/>
    </contour>
    <contour>
      <point x="25" y="206" type="line"/>
      <point x="361" y="206" type="line"/>
      <point x="361" y="312" type="line"/>
      <point x="25" y="312" type="line"/>
    </contour>
    <contour>
      <point x="25" y="378" type="line"/>
      <point x="361" y="378" type="line"/>
      <point x="361" y="484" type="line"/>
      <point x="25" y="484" type="line"/>
    </contour>
  </outline>
</glyph>
<glyph name="partialdiff" format="1">
  <advance width="538"/>
  <unicode hex="2202"/>
  <outline>
    <contour>
      <point x="40" y="205" type="curve" smooth="yes"/>
      <point x="40" y="72"/>
      <point x="111.0" y="-12.0"/>
      <point x="210" y="-12" type="curve" smooth="yes"/>
      <point x="355" y="-12"/>
      <point x="468" y="140"/>
      <point x="468" y="390" type="curve" smooth="yes"/>
      <point x="468" y="560"/>
      <point x="402" y="730"/>
      <point x="252" y="730" type="curve" smooth="yes"/>
      <point x="218" y="730"/>
      <point x="185" y="724"/>
      <point x="160" y="715" type="curve"/>
      <point x="168" y="590" type="line"/>
      <point x="182.4626865671642" y="595.1333333333333"/>
      <point x="204" y="601"/>
      <point x="225" y="601" type="curve" smooth="yes"/>
      <point x="313" y="601"/>
      <point x="338" y="503"/>
      <point x="338" y="370" type="curve"/>
      <point x="338" y="217"/>
      <point x="280.95327102803736" y="114.0"/>
      <point x="229" y="114" type="curve" smooth="yes"/>
      <point x="193.82758620689657" y="114.0"/>
      <point x="169.0" y="143.39393939393938"/>
      <point x="169" y="211" type="curve" smooth="yes"/>
      <point x="169.0" y="299.21678321678326"/>
      <point x="210.85416666666669" y="356.0"/>
      <point x="267" y="356" type="curve" smooth="yes"/>
      <point x="322" y="356"/>
      <point x="367" y="318"/>
      <point x="383" y="255" type="curve"/>
      <point x="396" y="380" type="line"/>
      <point x="377.0232558139534" y="430.0"/>
      <point x="338" y="480"/>
      <point x="252" y="480" type="curve" smooth="yes"/>
      <point x="139" y="480"/>
      <point x="40" y="362"/>
    </contour>
  </outline>
</glyph>
<glyph name="minus" format="1">
  <advance width="504"/>
  <unicode hex="2212"/>
  <outline>
    <contour>
      <point x="45" y="224" type="line"/>
      <point x="460" y="224" type="line"/>
      <point x="460" y="356" type="line"/>
      <point x="45" y="356" type="line"/>
    </contour>
  </outline>
</glyph>
<glyph name="divisionslash" format="1">
  <advance width="502"/>
  <unicode hex="2215"/>
  <outline>
    <contour>
      <point x="1" y="0" type="line"/>
      <point x="149" y="0" type="line"/>
      <point x="501" y="690" type="line"/>
      <point x="354" y="690" type="line"/>
    </contour>
  </outline>
</glyph>
<glyph name="bulletoperator" format="1">
  <advance width="500"/>
  <unicode hex="2219"/>
  <outline>
    <contour>
      <point x="142.0" y="303" type="curve" smooth="yes"/>
      <point x="142.0" y="243"/>
      <point x="190.0" y="193"/>
      <point x="250.0" y="193" type="curve" smooth="yes"/>
      <point x="309.0" y="193"/>
      <point x="358.0" y="243"/>
      <point x="358.0" y="303" type="curve" smooth="yes"/>
      <point x="358.0" y="361"/>
      <point x="309.0" y="410"/>
      <point x="250.0" y="410" type="curve" smooth="yes"/>
      <point x="190.0" y="410"/>
      <point x="142.0" y="361"/>
    </contour>
  </outline>
</glyph>
<glyph name="radical" format="1">
  <advance width="629"/>
  <unicode hex="221A"/>
  <outline>
    <contour>
      <point x="84" y="352" type="line"/>
      <point x="247" y="-185" type="line"/>
      <point x="345" y="-185" type="line"/>
      <point x="345" y="-95" type="line"/>
      <point x="229" y="352" type="line"/>
    </contour>
    <contour>
      <point x="277" y="-95" type="line"/>
      <point x="277" y="-185" type="line"/>
      <point x="372" y="-185" type="line"/>
      <point x="638" y="690" type="line"/>
      <point x="501" y="690" type="line"/>
    </contour>
    <contour>
      <point x="17" y="215" type="line"/>
      <point x="180" y="215" type="line"/>
      <point x="180" y="352" type="line"/>
      <point x="17" y="352" type="line"/>
    </contour>
  </outline>
</glyph>
<glyph name="approxequal" format="1">
  <advance width="504"/>
  <unicode hex="2248"/>
  <outline>
    <contour>
      <point x="116" y="80" type="line"/>
      <point x="133.0958904109589" y="100.0"/>
      <point x="163" y="119"/>
      <point x="194" y="119" type="curve" smooth="yes"/>
      <point x="249" y="119"/>
      <point x="268.5945945945946" y="81.0"/>
      <point x="332" y="81" type="curve" smooth="yes"/>
      <point x="384.0" y="81.0"/>
      <point x="428.0" y="119.5"/>
      <point x="462" y="158" type="curve"/>
      <point x="388" y="255" type="line"/>
      <point x="370.9041095890411" y="235.0"/>
      <point x="341" y="216"/>
      <point x="310" y="216" type="curve" smooth="yes"/>
      <point x="255" y="216"/>
      <point x="235.69230769230768" y="254.0"/>
      <point x="172" y="254" type="curve" smooth="yes"/>
      <point x="120.0" y="254.0"/>
      <point x="76.0" y="215.53086419753086"/>
      <point x="42" y="178" type="curve"/>
    </contour>
    <contour>
      <point x="116" y="325" type="line"/>
      <point x="133.0958904109589" y="345.0"/>
      <point x="163" y="364"/>
      <point x="194" y="364" type="curve" smooth="yes"/>
      <point x="249" y="364"/>
      <point x="268.5945945945946" y="326.0"/>
      <point x="332" y="326" type="curve" smooth="yes"/>
      <point x="384.0" y="326.0"/>
      <point x="428.0" y="364.46913580246917"/>
      <point x="462" y="402" type="curve"/>
      <point x="388" y="500" type="line"/>
      <point x="370.9041095890411" y="480.0"/>
      <point x="341" y="461"/>
      <point x="310" y="461" type="curve" smooth="yes"/>
      <point x="255" y="461"/>
      <point x="235.69230769230768" y="499.0"/>
      <point x="172" y="499" type="curve" smooth="yes"/>
      <point x="120.0" y="499.0"/>
      <point x="76.0" y="460.5"/>
      <point x="42" y="422" type="curve"/>
    </contour>
  </outline>
</glyph>
<glyph name="notequal" format="1">
  <advance width="504"/>
  <unicode hex="2260"/>
  <outline>
    <contour>
      <point x="95" y="-30" type="line"/>
      <point x="224" y="-30" type="line"/>
      <point x="409" y="610" type="line"/>
      <point x="280" y="610" type="line"/>
    </contour>
    <contour>
      <point x="45" y="353" type="line"/>
      <point x="460" y="353" type="line"/>
      <point x="460" y="485" type="line"/>
      <point x="45" y="485" type="line"/>
    </contour>
    <contour>
      <point x="45" y="95" type="line"/>
      <point x="460" y="95" type="line"/>
      <point x="460" y="227" type="line"/>
      <point x="45" y="227" type="line"/>
    </contour>
  </outline>
</glyph>
<glyph name="lessequal" format="1">
  <advance width="504"/>
  <unicode hex="2264"/>
  <outline>
    <contour>
      <point x="56" y="306" type="line"/>
      <point x="431" y="181" type="line"/>
      <point x="431" y="321" type="line"/>
      <point x="154" y="392" type="line"/>
      <point x="56" y="402" type="line"/>
    </contour>
    <contour>
      <point x="56" y="365" type="line"/>
      <point x="154" y="363" type="line"/>
      <point x="431" y="434" type="line"/>
      <point x="431" y="579" type="line"/>
      <point x="56" y="455" type="line"/>
    </contour>
    <contour>
      <point x="56" y="60" type="line"/>
      <point x="431" y="60" type="line"/>
      <point x="431" y="192" type="line"/>
      <point x="56" y="192" type="line"/>
    </contour>
  </outline>
</glyph>
<glyph name="greaterequal" format="1">
  <advance width="504"/>
  <unicode hex="2265"/>
  <outline>
    <contour>
      <point x="448" y="306" type="line"/>
      <point x="448" y="402" type="line"/>
      <point x="350" y="392" type="line"/>
      <point x="73" y="321" type="line"/>
      <point x="73" y="181" type="line"/>
    </contour>
    <contour>
      <point x="448" y="365" type="line"/>
      <point x="448" y="455" type="line"/>
      <point x="73" y="579" type="line"/>
      <point x="73" y="434" type="line"/>
      <point x="350" y="363" type="line"/>
    </contour>
    <contour>
      <point x="448" y="60" type="line"/>
      <point x="448" y="192" type="line"/>
      <point x="73" y="192" type="line"/>
      <point x="73" y="60" type="line"/>
    </contour>
  </outline>
</glyph>
<glyph name="I.alt" format="1">
  <advance width="281"/>
  <outline>
    <contour>
      <point x="70" y="0" type="line"/>
      <point x="212" y="0" type="line"/>
      <point x="212" y="690" type="line"/>
      <point x="70" y="690" type="line"/>
    </contour>
    <contour>
      <point x="141.0" y="690.0" type="move" name="top"/>
    </contour>
    <contour>
      <point x="70.0" y="0.0" type="move" name="ogonek"/>
    </contour>
    <contour>
      <point x="141.0" y="0.0" type="move" name="bottom"/>
    </contour>
  </outline>
</glyph>
<glyph name="J.alt" format="1">
  <advance width="477"/>
  <outline>
    <contour>
      <point x="11" y="64" type="line"/>
      <point x="57" y="18"/>
      <point x="115" y="-12"/>
      <point x="188" y="-12" type="curve" smooth="yes"/>
      <point x="316" y="-12"/>
      <point x="416" y="79"/>
      <point x="416" y="244" type="curve" smooth="yes"/>
      <point x="416" y="690" type="line"/>
      <point x="274" y="690" type="line"/>
      <point x="274" y="262" type="line" smooth="yes"/>
      <point x="274" y="169"/>
      <point x="240" y="121"/>
      <point x="178" y="121" type="curve" smooth="yes"/>
      <point x="136.1086956521739" y="121.0"/>
      <point x="104.43478260869566" y="141.97560975609755"/>
      <point x="84" y="164" type="curve"/>
    </contour>
    <contour>
      <point x="347.0" y="690.0" type="move" name="top"/>
    </contour>
  </outline>
</glyph>
<glyph name=".notdef" format="1">
  <advance width="504"/>
  <outline>
    <contour>
      <point x="62" y="-185" type="line"/>
      <point x="186" y="-185" type="line"/>
      <point x="186" y="690" type="line"/>
      <point x="62" y="690" type="line"/>
    </contour>
    <contour>
      <point x="56" y="-185" type="line"/>
      <point x="448" y="-185" type="line"/>
      <point x="448" y="-72" type="line"/>
      <point x="56" y="-72" type="line"/>
    </contour>
    <contour>
      <point x="56" y="577" type="line"/>
      <point x="448" y="577" type="line"/>
      <point x="448" y="690" type="line"/>
      <point x="56" y="690" type="line"/>
    </contour>
    <contour>
      <point x="317" y="-185" type="line"/>
      <point x="442" y="-185" type="line"/>
      <point x="442" y="690" type="line"/>
      <point x="317" y="690" type="line"/>
    </contour>
  </outline>
</glyph>
<glyph name="acute.cap" format="1">
  <advance width="504"/>
  <outline>
    <contour>
      <point x="192" y="750" type="line"/>
      <point x="279" y="885" type="line"/>
      <point x="430" y="885" type="line"/>
      <point x="310" y="750" type="line"/>
    </contour>
    <contour>
      <point x="252.0" y="690.0" type="move" name="_top"/>
    </contour>
  </outline>
</glyph>
<glyph name="breve.cap" format="1">
  <advance width="504"/>
  <outline>
    <contour>
      <point x="124" y="885" type="line"/>
      <point x="124" y="795"/>
      <point x="174" y="739"/>
      <point x="252" y="739" type="curve" smooth="yes"/>
      <point x="330" y="739"/>
      <point x="380" y="794"/>
      <point x="380" y="885" type="curve"/>
      <point x="301" y="885" type="line"/>
      <point x="297.3703703703704" y="856.0"/>
      <point x="283" y="831"/>
      <point x="252" y="831" type="curve" smooth="yes"/>
      <point x="221" y="831"/>
      <point x="206.62962962962962" y="856.0"/>
      <point x="203" y="885" type="curve"/>
    </contour>
    <contour>
      <point x="252.0" y="690.0" type="move" name="_top"/>
    </contour>
  </outline>
</glyph>
<glyph name="caron.alt" format="1">
  <advance width="504"/>
  <outline>
    <contour>
      <point x="224" y="524" type="line"/>
      <point x="333" y="524" type="line"/>
      <point x="374" y="732" type="line"/>
      <point x="248" y="732" type="line"/>
    </contour>
    <contour>
      <point x="252.0" y="720.0" type="move" name="_caron.alt"/>
    </contour>
  </outline>
</glyph>
<glyph name="caron.cap" format="1">
  <advance width="504"/>
  <outline>
    <contour>
      <point x="419" y="885" type="line"/>
      <point x="330" y="750" type="line"/>
      <point x="182" y="750" type="line"/>
      <point x="305" y="885" type="line"/>
    </contour>
    <contour>
      <point x="324" y="750" type="line"/>
      <point x="176" y="750" type="line"/>
      <point x="87" y="885" type="line"/>
      <point x="201" y="885" type="line"/>
    </contour>
    <contour>
      <point x="252.0" y="690.0" type="move" name="_top"/>
    </contour>
  </outline>
</glyph>
<glyph name="circumflex.cap" format="1">
  <advance width="504"/>
  <outline>
    <contour>
      <point x="87" y="750" type="line"/>
      <point x="176" y="885" type="line"/>
      <point x="324" y="885" type="line"/>
      <point x="201" y="750" type="line"/>
    </contour>
    <contour>
      <point x="182" y="885" type="line"/>
      <point x="330" y="885" type="line"/>
      <point x="419" y="750" type="line"/>
      <point x="305" y="750" type="line"/>
    </contour>
    <contour>
      <point x="252.0" y="690.0" type="move" name="_top"/>
    </contour>
  </outline>
</glyph>
<glyph name="commaaccent.alt" format="1">
  <advance width="504"/>
  <outline>
    <contour>
      <point x="176" y="692" type="curve" smooth="yes"/>
      <point x="176" y="647"/>
      <point x="210" y="616"/>
      <point x="252" y="616" type="curve" smooth="yes"/>
      <point x="293" y="616"/>
      <point x="326" y="651"/>
      <point x="326" y="691" type="curve" smooth="yes"/>
      <point x="326" y="724"/>
      <point x="307" y="751"/>
      <point x="276" y="763" type="curve"/>
      <point x="307" y="903" type="line"/>
      <point x="240" y="903" type="line"/>
      <point x="205" y="800" type="line" smooth="yes"/>
      <point x="189" y="753"/>
      <point x="176" y="723"/>
    </contour>
    <contour>
      <point x="252.0" y="526.0" type="move" name="_top"/>
    </contour>
  </outline>
</glyph>
<glyph name="commaaccent" format="1">
  <advance width="500"/>
  <outline>
    <contour>
      <point x="195.0" y="-354" type="line"/>
      <point x="262.0" y="-354" type="line"/>
      <point x="297.0" y="-251" type="line" smooth="yes"/>
      <point x="313.0" y="-204"/>
      <point x="326.0" y="-174"/>
      <point x="326.0" y="-143" type="curve" smooth="yes"/>
      <point x="326.0" y="-98"/>
      <point x="292.0" y="-67"/>
      <point x="250.0" y="-67" type="curve" smooth="yes"/>
      <point x="209.0" y="-67"/>
      <point x="176.0" y="-102"/>
      <point x="176.0" y="-142" type="curve" smooth="yes"/>
      <point x="176.0" y="-175.47862336136382"/>
      <point x="195.44613532163874" y="-201.77845412865548"/>
      <point x="226.0" y="-214" type="curve"/>
    </contour>
    <contour>
      <point x="250.0" y="-12.0" type="move" name="_bottom"/>
    </contour>
  </outline>
</glyph>
<glyph name="dieresis.cap" format="1">
  <advance width="504"/>
  <outline>
    <contour>
      <point x="155" y="766" type="curve" smooth="yes"/>
      <point x="194" y="766"/>
      <point x="225" y="799"/>
      <point x="225" y="838" type="curve" smooth="yes"/>
      <point x="225" y="876"/>
      <point x="194" y="908"/>
      <point x="155" y="908" type="curve" smooth="yes"/>
      <point x="116" y="908"/>
      <point x="84" y="876"/>
      <point x="84" y="838" type="curve" smooth="yes"/>
      <point x="84" y="799"/>
      <point x="116" y="766"/>
    </contour>
    <contour>
      <point x="349" y="766" type="curve" smooth="yes"/>
      <point x="388" y="766"/>
      <point x="419" y="799"/>
      <point x="419" y="838" type="curve" smooth="yes"/>
      <point x="419" y="876"/>
      <point x="388" y="908"/>
      <point x="349" y="908" type="curve" smooth="yes"/>
      <point x="310" y="908"/>
      <point x="278" y="876"/>
      <point x="278" y="838" type="curve" smooth="yes"/>
      <point x="278" y="799"/>
      <point x="310" y="766"/>
    </contour>
    <contour>
      <point x="252.0" y="690.0" type="move" name="_top"/>
    </contour>
  </outline>
</glyph>
<glyph name="dotaccent.cap" format="1">
  <advance width="504"/>
  <outline>
    <contour>
      <point x="251" y="760" type="curve" smooth="yes"/>
      <point x="291" y="760"/>
      <point x="324" y="794"/>
      <point x="324" y="834" type="curve" smooth="yes"/>
      <point x="324" y="873"/>
      <point x="291" y="907"/>
      <point x="251" y="907" type="curve" smooth="yes"/>
      <point x="211" y="907"/>
      <point x="178" y="873"/>
      <point x="178" y="834" type="curve" smooth="yes"/>
      <point x="178" y="794"/>
      <point x="211" y="760"/>
    </contour>
    <contour>
      <point x="252.0" y="690.0" type="move" name="_top"/>
    </contour>
  </outline>
</glyph>
<glyph name="dotbelow" format="1">
  <advance width="504"/>
  <outline>
    <component base="dotaccent" yOffset="-815"/>
    <contour>
      <point x="252.0" y="0.0" type="move" name="_bottom"/>
    </contour>
  </outline>
</glyph>
<glyph name="florin" format="1">
  <advance width="504"/>
  <outline>
    <contour>
      <point x="59" y="-181" type="line"/>
      <point x="82" y="-190"/>
      <point x="115" y="-197"/>
      <point x="141" y="-197" type="curve" smooth="yes"/>
      <point x="221" y="-197"/>
      <point x="310" y="-148"/>
      <point x="310" y="0" type="curve" smooth="yes"/>
      <point x="310" y="521" type="line" smooth="yes"/>
      <point x="310" y="577"/>
      <point x="329" y="611"/>
      <point x="376" y="611" type="curve" smooth="yes"/>
      <point x="392" y="611"/>
      <point x="404" y="608"/>
      <point x="419" y="604" type="curve"/>
      <point x="437" y="717" type="line"/>
      <point x="409" y="726"/>
      <point x="375" y="732"/>
      <point x="346" y="732" type="curve" smooth="yes"/>
      <point x="236" y="732"/>
      <point x="173" y="651"/>
      <point x="173" y="519" type="curve" smooth="yes"/>
      <point x="173" y="21" type="line" smooth="yes"/>
      <point x="173" y="-45"/>
      <point x="151" y="-65"/>
      <point x="115" y="-65" type="curve" smooth="yes"/>
      <point x="103" y="-65"/>
      <point x="91" y="-63"/>
      <point x="73" y="-58" type="curve"/>
    </contour>
    <contour>
      <point x="98" y="413" type="line"/>
      <point x="421" y="413" type="line"/>
      <point x="421" y="525" type="line"/>
      <point x="98" y="525" type="line"/>
    </contour>
  </outline>
</glyph>
<glyph name="grave.cap" format="1">
  <advance width="504"/>
  <outline>
    <contour>
      <point x="84" y="885" type="line"/>
      <point x="230" y="885" type="line"/>
      <point x="312" y="750" type="line"/>
      <point x="197" y="750" type="line"/>
    </contour>
    <contour>
      <point x="252.0" y="690.0" type="move" name="_top"/>
    </contour>
  </outline>
</glyph>
<glyph name="hungarumlaut.cap" format="1">
  <advance width="504"/>
  <outline>
    <contour>
      <point x="120" y="750" type="line"/>
      <point x="179" y="885" type="line"/>
      <point x="303" y="885" type="line"/>
      <point x="209" y="750" type="line"/>
    </contour>
    <contour>
      <point x="279" y="750" type="line"/>
      <point x="346" y="885" type="line"/>
      <point x="470" y="885" type="line"/>
      <point x="368" y="750" type="line"/>
    </contour>
    <contour>
      <point x="252.0" y="690.0" type="move" name="_top"/>
    </contour>
  </outline>
</glyph>
<glyph name="macron.cap" format="1">
  <advance width="504"/>
  <outline>
    <contour>
      <point x="105" y="773" type="line"/>
      <point x="399" y="773" type="line"/>
      <point x="399" y="884" type="line"/>
      <point x="105" y="884" type="line"/>
    </contour>
    <contour>
      <point x="252.0" y="690.0" type="move" name="_top"/>
    </contour>
  </outline>
</glyph>
<glyph name="ogonek.alt" format="1">
  <advance width="504"/>
  <outline>
    <contour>
      <point x="200" y="-105" type="curve" smooth="yes"/>
      <point x="200" y="-159"/>
      <point x="233" y="-197"/>
      <point x="293" y="-197" type="curve" smooth="yes"/>
      <point x="322" y="-197"/>
      <point x="348" y="-186"/>
      <point x="369" y="-172" type="curve"/>
      <point x="340" y="-104" type="line"/>
      <point x="329" y="-110"/>
      <point x="320" y="-115"/>
      <point x="308" y="-115" type="curve" smooth="yes"/>
      <point x="290" y="-115"/>
      <point x="282" y="-102"/>
      <point x="282" y="-87" type="curve" smooth="yes"/>
      <point x="282" y="-59"/>
      <point x="313" y="-14"/>
      <point x="353" y="27" type="curve"/>
      <point x="252" y="0" type="line"/>
      <point x="222" y="-23"/>
      <point x="200" y="-58"/>
    </contour>
    <contour>
      <point x="252.0" y="0.0" type="move" name="_ogonek"/>
    </contour>
  </outline>
</glyph>
<glyph name="ring.cap" format="1">
  <advance width="504"/>
  <outline>
    <contour>
      <point x="143" y="850" type="curve" smooth="yes"/>
      <point x="143" y="790"/>
      <point x="191" y="743"/>
      <point x="252" y="743" type="curve" smooth="yes"/>
      <point x="313" y="743"/>
      <point x="362" y="790"/>
      <point x="362" y="850" type="curve" smooth="yes"/>
      <point x="362" y="910"/>
      <point x="313" y="956"/>
      <point x="252" y="956" type="curve" smooth="yes"/>
      <point x="191" y="956"/>
      <point x="143" y="910"/>
    </contour>
    <contour>
      <point x="213" y="850" type="curve" smooth="yes"/>
      <point x="213" y="873"/>
      <point x="229" y="890"/>
      <point x="252" y="890" type="curve" smooth="yes"/>
      <point x="276" y="890"/>
      <point x="291" y="873"/>
      <point x="291" y="850" type="curve" smooth="yes"/>
      <point x="291" y="826"/>
      <point x="276" y="809"/>
      <point x="252" y="809" type="curve" smooth="yes"/>
      <point x="229" y="809"/>
      <point x="213" y="826"/>
    </contour>
    <contour>
      <point x="252.0" y="690.0" type="move" name="_top"/>
    </contour>
  </outline>
</glyph>
<glyph name="ring_acute.cap" format="1">
  <advance width="504"/>
  <outline>
    <component base="acute.cap" yOffset="249"/>
    <component base="ring.cap"/>
    <contour>
      <point x="252.0" y="690.0" type="move" name="_top"/>
    </contour>
  </outline>
</glyph>
<glyph name="ring_acute" format="1">
  <advance width="504"/>
  <outline>
    <component base="acute" yOffset="269"/>
    <component base="ring"/>
    <contour>
      <point x="252.0" y="526.0" type="move" name="_top"/>
    </contour>
  </outline>
</glyph>
<glyph name="tilde.cap" format="1">
  <advance width="504"/>
  <outline>
    <contour>
      <point x="106" y="761" type="curve"/>
      <point x="172" y="761" type="line"/>
      <point x="176.0" y="791.0"/>
      <point x="190" y="799"/>
      <point x="202" y="799" type="curve"/>
      <point x="230" y="799"/>
      <point x="261" y="756"/>
      <point x="308" y="756" type="curve"/>
      <point x="359" y="756"/>
      <point x="397" y="811"/>
      <point x="397" y="892" type="curve"/>
      <point x="332" y="892" type="line"/>
      <point x="328.0" y="863.0"/>
      <point x="314" y="854"/>
      <point x="302" y="854" type="curve"/>
      <point x="274" y="854"/>
      <point x="243" y="897"/>
      <point x="196" y="897" type="curve"/>
      <point x="145" y="897"/>
      <point x="106" y="846"/>
    </contour>
    <contour>
      <point x="252.0" y="690.0" type="move" name="_top"/>
    </contour>
  </outline>
</glyph>
